<svg width="536" height="208" viewBox="0 0 536 208" fill="none" xmlns="http://www.w3.org/2000/svg">
<path d="M376.7 144.09H158.7V205.09H376.7V144.09Z" fill="white"/>
<path d="M183.984 183.051H193.441V195.953C191.895 196.457 190.406 196.814 188.977 197.025C187.559 197.236 186.023 197.342 184.371 197.342C180.48 197.342 177.48 196.193 175.371 193.896C173.262 191.588 172.207 188.336 172.207 184.14C172.207 180.004 173.396 176.769 175.775 174.437C178.154 172.094 181.43 170.922 185.602 170.922C188.285 170.922 190.828 171.437 193.23 172.469L191.754 175.967C189.668 175.006 187.582 174.525 185.496 174.525C182.754 174.525 180.586 175.386 178.992 177.109C177.398 178.832 176.602 181.187 176.602 184.176C176.602 187.316 177.316 189.707 178.746 191.347C180.188 192.976 182.256 193.791 184.951 193.791C186.311 193.791 187.764 193.621 189.311 193.281V186.654H183.984V183.051ZM224.924 196.99L222.357 189.853H212.531L210.018 196.99H205.588L215.203 171.185H219.773L229.389 196.99H224.924ZM221.25 186.232L218.842 179.236C218.666 178.767 218.42 178.029 218.104 177.021C217.799 176.013 217.588 175.275 217.471 174.806C217.154 176.248 216.691 177.824 216.082 179.535L213.762 186.232H221.25ZM253.242 196.99L245.789 175.527H245.648C245.848 178.715 245.947 181.703 245.947 184.492V196.99H242.133V171.291H248.057L255.193 191.734H255.299L262.646 171.291H268.588V196.99H264.545V184.281C264.545 183.004 264.574 181.34 264.633 179.289C264.703 177.238 264.762 175.996 264.809 175.562H264.668L256.951 196.99H253.242ZM284.707 196.99V171.291H288.908V196.99H284.707ZM326.473 196.99H321.322L308.684 176.511H308.543L308.631 177.654C308.795 179.834 308.877 181.826 308.877 183.631V196.99H305.062V171.291H310.16L322.764 191.664H322.869C322.846 191.394 322.799 190.416 322.729 188.728C322.658 187.029 322.623 185.705 322.623 184.756V171.291H326.473V196.99ZM353.121 183.051H362.578V195.953C361.031 196.457 359.543 196.814 358.113 197.025C356.695 197.236 355.16 197.342 353.508 197.342C349.617 197.342 346.617 196.193 344.508 193.896C342.398 191.588 341.344 188.336 341.344 184.14C341.344 180.004 342.533 176.769 344.912 174.437C347.291 172.094 350.566 170.922 354.738 170.922C357.422 170.922 359.965 171.437 362.367 172.469L360.891 175.967C358.805 175.006 356.719 174.525 354.633 174.525C351.891 174.525 349.723 175.386 348.129 177.109C346.535 178.832 345.738 181.187 345.738 184.176C345.738 187.316 346.453 189.707 347.883 191.347C349.324 192.976 351.393 193.791 354.088 193.791C355.447 193.791 356.9 193.621 358.447 193.281V186.654H353.121V183.051Z" fill="#242424"/>
<path d="M467.49 197.43C339.145 146.608 196.255 146.608 67.91 197.43L58.65 201.09L0 52.97L9.26 49.31C175.281 -16.437 360.119 -16.437 526.14 49.31L535.4 52.97L476.75 201.09L467.49 197.43Z" fill="white"/>
<path d="M60.7599 41.62C71.2199 42.85 76.3899 43.53 86.6399 45.21L86.9199 46.21L87.3499 47.77C89.4499 55.37 90.4899 59.17 92.5899 66.77L93.2999 69.36L96.9999 82.86C100.52 95.64 104.043 108.423 107.57 121.21C109.07 126.67 109.82 129.4 111.33 134.86C111.62 135.86 111.76 136.41 112.04 137.45C114.12 144.98 115.16 148.74 117.23 156.28L117.71 158C117.81 158.35 117.85 158.52 117.95 158.87C111.57 165.09 108.46 168.25 102.42 174.64L102.25 174.7C94.9199 177 91.2499 178.21 84.0099 180.77C80.4499 182.02 78.6799 182.67 75.1299 183.98C70.7499 185.61 68.5699 186.45 64.2199 188.17L56.6999 169.17C44.6266 138.637 32.5399 108.09 20.4399 77.53C17.4399 69.93 15.9299 66.14 12.9199 58.53C18.3699 56.37 21.1099 55.32 26.5899 53.29C31.0299 51.64 33.2499 50.83 37.7099 49.29C46.7999 46.09 51.3699 44.57 60.5399 41.69L60.7599 41.62ZM85.6299 127.72C81.6299 115.053 77.6299 102.413 73.6299 89.8L65.8299 65.2C62.4199 64.78 60.7099 64.58 57.2799 64.2C52.1399 65.89 49.5899 66.76 44.4999 68.53C55.4066 99.53 66.3233 130.53 77.2499 161.53C81.5899 160 83.7699 159.26 88.1299 157.82C90.2299 155.62 91.2899 154.52 93.4299 152.34L85.6299 127.72Z" fill="#242424"/>
<path d="M166.2 17.44L169.2 37.64C170.53 46.64 171.2 51.15 172.54 60.15C162.85 61.59 158.02 62.4 148.37 64.2L144.19 41.84C135.87 43.39 131.73 44.24 123.45 46.05C125.45 55.27 127.477 64.4867 129.53 73.7C140.24 76.27 145.53 77.7 155.93 80.7C157.5 89.45 158.29 93.82 159.86 102.57C149.79 99.5 144.68 98.07 134.3 95.43L144.62 142.33C151.68 140.78 155.22 140.06 162.31 138.73C162.25 138.38 162.21 138.21 162.15 137.85C161.86 136.3 161.71 135.53 161.42 133.98L161.32 133.45C161.18 132.68 161.11 132.29 160.96 131.51C160.81 130.73 160.72 130.24 160.57 129.4L157.57 113.4C157.44 112.7 157.37 112.4 157.24 111.64C167.02 114.55 171.84 116.11 181.31 119.41C181.97 123.81 182.31 126.01 182.94 130.41C183.23 132.33 183.37 133.28 183.65 135.2L184.6 141.58L186.65 155.4C178.4 156.63 174.28 157.32 166.07 158.85C159.23 160.13 155.81 160.85 149 162.32C140.83 164.12 136.76 165.1 128.64 167.21C126.64 159.3 125.56 155.35 123.5 147.44C118.753 129.167 114.007 110.9 109.26 92.64C111.69 92.01 112.91 91.7 115.35 91.09C112.61 90.51 111.24 90.23 108.49 89.69C105.74 89.15 104.49 88.85 101.79 88.31C101.59 87.55 101.48 87.17 101.28 86.41C99.3501 79.22 98.3901 75.65 96.4601 68.53C96.2801 67.83 96.1801 67.53 96.0001 66.8C98.7501 67.24 100.12 67.47 102.86 67.94L98.7101 51.99C96.6501 44.08 95.6201 40.13 93.5701 32.22C103.73 29.58 108.83 28.35 119.06 26.1C127.59 24.23 131.87 23.36 140.43 21.76C150.72 19.83 155.87 18.97 166.2 17.44Z" fill="#242424"/>
<path d="M248.3 30.66C238.99 30.93 234.3 31.15 225.04 31.74L232.6 150.53C224.29 151.05 220.14 151.4 211.86 152.24L199.86 33.87C190.68 34.8 186.09 35.35 176.93 36.6C175.83 28.5 175.27 24.46 174.17 16.36C183.61 15.07 188.33 14.51 197.8 13.55C208.18 12.49 213.37 12.07 223.8 11.4C233.38 10.79 238.17 10.57 247.8 10.3C248 18.41 248.07 22.53 248.3 30.66Z" fill="#242424"/>
<path d="M327.62 33.06C324.693 65.78 321.76 98.5 318.82 131.22C318.1 139.36 317.73 143.42 317 151.56C308.71 150.82 304.56 150.56 296.24 150.1C289.32 149.74 285.85 149.61 278.92 149.47C270.6 149.3 266.44 149.3 258.12 149.47L257.77 129.05L256.06 30.53L255.71 10.11C266.12 9.93001 271.34 9.94001 281.71 10.11C290.39 10.29 294.71 10.44 303.4 10.89C313.81 11.43 319.01 11.8 329.4 12.73C328.71 20.85 328.34 24.92 327.62 33.06ZM297.3 129.7C299 96.8933 300.697 64.0867 302.39 31.28C293.97 30.84 289.76 30.69 281.34 30.52C280.673 63.36 280.007 96.2033 279.34 129.05C286.52 129.2 290.12 129.33 297.3 129.7Z" fill="#242424"/>
<path d="M410.5 24.85C408.167 35.7833 405.863 46.71 403.59 57.63C403.44 58.33 403.37 58.63 403.22 59.39C401.7 66.61 400.93 70.22 399.41 77.39C399.25 78.17 399.17 78.55 399 79.32C395.78 94.6533 392.553 109.967 389.32 125.26C386.793 137.26 384.267 149.24 381.74 161.2C373.56 159.48 369.45 158.69 361.22 157.28C363.3 145.207 365.373 133.14 367.44 121.08C370.553 102.94 373.667 84.8067 376.78 66.68C379.72 67.19 381.2 67.45 384.14 67.99C375.81 61.85 367.26 55.92 358.6 50.26L344.05 154.66C335.79 153.51 331.65 153.01 323.37 152.17C327.29 113.37 331.217 74.5667 335.15 35.76L335.35 33.76C335.43 32.9 335.48 32.47 335.56 31.62L337.21 15.4C337.29 14.61 337.33 14.22 337.4 13.4C352.3 22.23 366.83 31.47 381.14 41.22C382.61 32.68 383.34 28.4 384.81 19.86C395.12 21.7 400.26 22.69 410.5 24.85Z" fill="#242424"/>
<path d="M464.93 38.65C475.02 41.65 480.04 43.25 490.04 46.65C487.41 54.39 486.1 58.26 483.47 65.99C478.137 81.7233 472.803 97.45 467.47 113.17L466.84 115.03L460.91 132.53L460.33 134.23C455.31 149.05 450.283 163.867 445.25 178.68C437.25 175.98 433.25 174.68 425.2 172.31C430.4 154.71 435.627 137.117 440.88 119.53C443.6 120.34 444.96 120.75 447.67 121.59L447.33 121.3C445.18 119.2 444.09 118.16 441.9 116.09C435.6 110.09 432.37 107.15 425.78 101.34C419.98 123.413 414.173 145.48 408.36 167.54C400.25 165.4 396.18 164.41 388.01 162.59C393.843 136.477 399.67 110.36 405.49 84.24L405.92 82.32C407.52 75.11 408.33 71.51 409.92 64.32C410.08 63.62 410.16 63.32 410.31 62.57C411.75 56.13 412.47 52.91 413.9 46.48L418.36 26.53C428.59 28.81 433.68 30.05 443.84 32.72C452.3 34.97 456.52 36.15 464.93 38.65ZM448.28 94.65L459.11 58.23C451 55.81 446.85 54.66 438.64 52.53L431.48 79.73C438.35 85.59 441.71 88.58 448.28 94.64V94.65Z" fill="#242424"/>
<path d="M497.69 49.29C507.69 52.8 512.62 54.66 522.48 58.56L482.31 160.02C474 156.73 469.83 155.17 461.43 152.21C473.517 117.903 485.603 83.5967 497.69 49.29ZM455.18 169.95L459.35 158.12C467.65 161.05 471.78 162.59 480 165.85L471.16 188.17C465 180.79 461.78 177.14 455.18 169.95Z" fill="#242424"/>
</svg>
