<svg width="536" height="498" viewBox="0 0 536 498" fill="none" xmlns="http://www.w3.org/2000/svg">
<path d="M463.58 372.31V147.81L269.16 35.56L74.73 147.81V372.31L269.16 484.56L463.58 372.31Z" fill="#FFA500" stroke="white" stroke-width="18" stroke-miterlimit="10"/>
<path d="M232.54 361.34L141.37 311.74L141.69 134.65L232.87 184.25L232.54 361.34Z" fill="#820000"/>
<path d="M232.87 184.25L141.69 134.65L305.77 111.59L396.94 161.19L232.87 184.25Z" fill="#B40000"/>
<path d="M396.94 161.19L396.62 338.28L232.54 361.34L232.87 184.25L396.94 161.19Z" fill="#DF0000"/>
<path d="M270.09 12.48H267.87V158.62H270.09V12.48Z" fill="#4B484B"/>
<path d="M259 16.37V154.73C258.996 154.763 258.996 154.797 259 154.83V16.27C258.995 16.3031 258.995 16.3368 259 16.37Z" fill="#353336"/>
<path d="M259 16.27V154.83C258.995 154.86 258.995 154.89 259 154.92V16.18C258.995 16.2098 258.995 16.2402 259 16.27Z" fill="#373538"/>
<path d="M259 16.18V154.92C258.995 154.95 258.995 154.98 259 155.01V16.09C258.995 16.1198 258.995 16.1501 259 16.18Z" fill="#393739"/>
<path d="M259 16.09V155C258.995 155.03 258.995 155.06 259 155.09V16C258.995 16.0298 258.995 16.0602 259 16.09Z" fill="#3A383B"/>
<path d="M259.1 15.82V155.27C259.102 155.303 259.102 155.337 259.1 155.37V15.73V15.82Z" fill="#403D40"/>
<path d="M259.18 15.64V155.46L259.23 155.55V15.55L259.18 15.64Z" fill="#434144"/>
<path d="M259.23 15.55V155.55L259.29 155.66V15.44L259.23 15.55Z" fill="#454246"/>
<path d="M259.29 15.44V155.66L259.36 155.77V15.33L259.29 15.44Z" fill="#474447"/>
<path d="M259.36 15.33V155.77L259.43 155.88V15.22L259.36 15.33Z" fill="#484649"/>
<path d="M259.43 15.22V155.88C259.469 155.925 259.506 155.971 259.54 156.02V15.08L259.43 15.22Z" fill="#4A474B"/>
<path d="M259.54 15.08V156L259.66 156.14V14.94L259.54 15.08Z" fill="#4C494D"/>
<path d="M259.66 14.94V156.16L259.82 156.31V14.78L259.66 14.94Z" fill="#4D4B4E"/>
<path d="M259.82 14.78V156.31C259.872 156.368 259.929 156.422 259.99 156.47V14.63L259.82 14.78Z" fill="#4F4C50"/>
<path d="M260 14.63V156.47L260.18 156.61V14.48L260 14.63Z" fill="#514E52"/>
<path d="M260.17 14.48V156.61C260.226 156.661 260.286 156.708 260.35 156.75V14.35C260.287 14.3885 260.226 14.4319 260.17 14.48Z" fill="#535054"/>
<path d="M260.35 14.35V156.75L260.5 156.86V14.24L260.35 14.35Z" fill="#545155"/>
<path d="M260.5 14.24V156.86L260.67 156.96V14.13L260.5 14.24Z" fill="#565357"/>
<path d="M260.67 14.13V157L260.82 157.09V14L260.67 14.09" fill="#6A686B"/>
<path d="M260.82 14V157L260.98 157.09V14L260.82 14.09" fill="#737074"/>
<path d="M261 14V157.14L261.16 157.23V13.87L261 14Z" fill="#79777A"/>
<path d="M261.14 13.87V157.23L261.3 157.31V13.79L261.14 13.87Z" fill="#7F7C7F"/>
<path d="M261.3 13.79V157.31L261.47 157.39V13.71L261.3 13.79Z" fill="#838184"/>
<path d="M261.47 13.71V157.39C261.526 157.424 261.587 157.451 261.65 157.47V13.62L261.47 13.71Z" fill="#888688"/>
<path d="M261.65 13.62V157.47L261.85 157.56V13.56L261.65 13.64" fill="#8C8A8C"/>
<path d="M261.85 13.54V157.54L262.06 157.62V13.45L261.85 13.54Z" fill="#8F8D90"/>
<path d="M262.06 13.45V157.64L262.35 157.75V13.34L262.06 13.45Z" fill="#939193"/>
<path d="M262.35 13.34V157.75L262.7 157.87V13.22L262.35 13.34Z" fill="#969497"/>
<path d="M262.7 13.22V157.87C263.264 158.05 263.839 158.197 264.42 158.31V12.79C263.839 12.9002 263.265 13.0438 262.7 13.22Z" fill="#99979A"/>
<path d="M264.42 12.79V158.31L264.89 158.39V12.71L264.42 12.79Z" fill="#969497"/>
<path d="M264.89 12.71V158.39L265.29 158.45V12.65L264.89 12.71Z" fill="#939193"/>
<path d="M265.29 12.65V158.45H265.66V12.6L265.29 12.65Z" fill="#8F8D90"/>
<path d="M265.66 12.6V158.49H266V12.49H265.66" fill="#8C8A8C"/>
<path d="M266 12.57V158.57H266.32V12.57H266Z" fill="#888688"/>
<path d="M266.32 12.54V158.54H266.64V12.52H266.32" fill="#838184"/>
<path d="M266.64 12.52V158.58H266.95V12.5H266.64" fill="#7F7C7F"/>
<path d="M267 12.5V158.6H267.31V12.49H267" fill="#79777A"/>
<path d="M267.26 12.49V158.61H267.58V12.48H267.26" fill="#737074"/>
<path d="M267.58 12.48V158.62H267.87V12.48H267.58Z" fill="#6A686B"/>
<path d="M270.13 12.48V158.62H270.46V12.48H270.13Z" fill="#565357"/>
<path d="M270.46 12.48V158.62H270.79V12.49H270.46" fill="#545155"/>
<path d="M270.79 12.49V158.61H271.14V12.5H270.79" fill="#535054"/>
<path d="M271.14 12.5V158.59H271.49V12.59H271.14" fill="#514E52"/>
<path d="M271.49 12.53V158.53H271.86V12.53H271.49Z" fill="#4F4C50"/>
<path d="M271.86 12.56V158.56H272.23V12.59H271.86" fill="#4D4B4E"/>
<path d="M272.23 12.59V158.5L272.64 158.45V12.64L272.23 12.59Z" fill="#4C494D"/>
<path d="M272.64 12.64V158.45L273.05 158.39V12.7L272.64 12.64Z" fill="#4A474B"/>
<path d="M273.05 12.7V158.39L273.49 158.32V12.78L273.05 12.7Z" fill="#484649"/>
<path d="M273.49 12.78V158.32L273.96 158.22V12.87L273.49 12.78Z" fill="#474447"/>
<path d="M274 12.87V158.22L274.47 158.11V13L274 12.89" fill="#454246"/>
<path d="M274.43 13V158.11L274.91 157.98V13.11L274.43 12.98" fill="#434144"/>
<path d="M274.91 13.11V158L275.38 157.86V13.26L274.91 13.11Z" fill="#413F42"/>
<path d="M275.38 13.26V157.84L275.83 157.68V13.42L275.38 13.26Z" fill="#403D40"/>
<path d="M275.83 13.42V157.68L276.24 157.51V13.59L275.83 13.42Z" fill="#3E3C3F"/>
<path d="M276.24 13.59V157.51L276.61 157.34V13.76L276.24 13.59Z" fill="#3C3A3D"/>
<path d="M276.61 13.76V157.34L276.94 157.17V13.93L276.61 13.76Z" fill="#3A383B"/>
<path d="M276.94 13.93V157.17L277.24 157V14.1L276.94 13.93Z" fill="#393739"/>
<path d="M277.24 14.1V157L277.5 156.83V14.26L277.24 14.1Z" fill="#373538"/>
<path d="M277.5 14.26V156.83L277.74 156.66V14.43L277.5 14.26Z" fill="#353336"/>
<path d="M277.74 14.43V156.66L277.95 156.49V14.6L277.74 14.43Z" fill="#343234"/>
<path d="M278 14.6V156.49L278.2 156.31V14.78L278 14.6Z" fill="#323032"/>
<path d="M278.15 14.78V156.31C278.218 156.252 278.282 156.188 278.34 156.12V15L278.15 14.8" fill="#302E31"/>
<path d="M278.34 15V156.12L278.52 155.9V15.2L278.34 14.98" fill="#2E2D2F"/>
<path d="M278.52 15.2V155.9C278.81 155.535 278.971 155.086 278.98 154.62V16.48C278.971 16.0143 278.81 15.5645 278.52 15.2Z" fill="#2D2B2D"/>
<path d="M259 16.48C258.995 16.4001 258.995 16.3199 259 16.24C258.995 16.3199 258.995 16.4001 259 16.48Z" fill="#323032"/>
<path d="M259 16.24C259 16.14 259 16.04 259.06 15.94C259.06 16.04 259.01 16.14 259 16.24Z" fill="#302E31"/>
<path d="M259.06 15.94C259.1 15.8127 259.15 15.6889 259.21 15.57C259.15 15.6889 259.1 15.8127 259.06 15.94Z" fill="#2E2D2F"/>
<path d="M259.21 15.57C260.12 13.8 263.66 12.48 267.87 12.48C263.66 12.48 260.12 13.8 259.21 15.57Z" fill="#2D2B2D"/>
<path d="M270.1 12.48C275 12.48 278.98 14.27 278.98 16.48C278.98 14.27 274.98 12.48 270.1 12.48Z" fill="#2D2B2D"/>
<path d="M270.1 158.62C270.876 158.62 271.65 158.573 272.42 158.48C271.65 158.573 270.876 158.62 270.1 158.62Z" fill="#302E31"/>
<path d="M272.42 158.48C273.353 158.371 274.273 158.177 275.17 157.9C274.273 158.177 273.353 158.371 272.42 158.48Z" fill="#2E2D2F"/>
<path d="M275.17 157.9C277.47 157.18 278.98 155.98 278.98 154.62C278.98 155.98 277.47 157.18 275.17 157.9Z" fill="#2D2B2D"/>
<path d="M259 155C259.021 155.138 259.062 155.273 259.12 155.4C259.062 155.273 259.021 155.138 259 155Z" fill="#353336"/>
<path d="M259.14 155.36C259.474 156.043 260.012 156.606 260.68 156.97C260.012 156.606 259.474 156.043 259.14 155.36Z" fill="#373538"/>
<path d="M260.68 157C261.19 157.306 261.729 157.561 262.29 157.76C261.729 157.561 261.19 157.306 260.68 157Z" fill="#353336"/>
<path d="M262.29 157.73C262.987 157.98 263.702 158.174 264.43 158.31C263.702 158.174 262.987 157.98 262.29 157.73Z" fill="#343234"/>
<path d="M264.43 158.31C265.335 158.475 266.251 158.575 267.17 158.61C266.251 158.575 265.335 158.475 264.43 158.31Z" fill="#323032"/>
<path d="M270.1 158.62C270.876 158.62 271.65 158.573 272.42 158.48C271.65 158.573 270.876 158.62 270.1 158.62Z" fill="#302E31"/>
<path d="M272.42 158.48C273.353 158.371 274.273 158.177 275.17 157.9C274.273 158.177 273.353 158.371 272.42 158.48Z" fill="#2E2D2F"/>
<path d="M275.17 157.9C277.47 157.18 278.98 155.98 278.98 154.62C278.98 155.98 277.47 157.18 275.17 157.9Z" fill="#2D2B2D"/>
<path d="M259 155C259.021 155.138 259.062 155.273 259.12 155.4C259.062 155.273 259.021 155.138 259 155Z" fill="#353336"/>
<path d="M259.14 155.36C259.474 156.043 260.012 156.606 260.68 156.97C260.012 156.606 259.474 156.043 259.14 155.36Z" fill="#373538"/>
<path d="M260.68 157C261.19 157.306 261.729 157.561 262.29 157.76C261.729 157.561 261.19 157.306 260.68 157Z" fill="#353336"/>
<path d="M262.29 157.73C262.987 157.98 263.702 158.174 264.43 158.31C263.702 158.174 262.987 157.98 262.29 157.73Z" fill="#343234"/>
<path d="M264.43 158.31C265.335 158.475 266.251 158.575 267.17 158.61C266.251 158.575 265.335 158.475 264.43 158.31Z" fill="#323032"/>
<path d="M270.1 158.62V12.48H270.39V158.62H270.1Z" fill="#6A686B"/>
<path d="M270.39 158.62V12.48H270.7V158.61H270.39" fill="#737074"/>
<path d="M270.7 158.61V12.49H271V158.6H270.68" fill="#79777A"/>
<path d="M271 158.6V12.5H271.31V158.58H271" fill="#7F7C7F"/>
<path d="M271.33 158.58V12.52H271.64V158.52H271.33" fill="#838184"/>
<path d="M271.64 158.56V12.56H271.97V158.56H271.64Z" fill="#888688"/>
<path d="M272 158.53V12.53H272.34V158.49H272" fill="#8C8A8C"/>
<path d="M272.31 158.49V12.6L272.68 12.65V158.45H272.31" fill="#8F8D90"/>
<path d="M272.68 158.45V12.65L273.08 12.71V158.39L272.68 158.45Z" fill="#939193"/>
<path d="M273.08 158.39V12.71L273.55 12.79V158.31L273.08 158.39Z" fill="#969497"/>
<path d="M273.55 158.31V12.79C274.131 12.9002 274.705 13.0438 275.27 13.22V157.87C274.706 158.05 274.131 158.197 273.55 158.31Z" fill="#99979A"/>
<path d="M275.27 157.87V13.22L275.62 13.34V157.75L275.27 157.87Z" fill="#969497"/>
<path d="M275.62 157.75V13.34L275.91 13.45V157.64L275.62 157.75Z" fill="#939193"/>
<path d="M275.91 157.64V13.45L276.12 13.54V157.54L275.91 157.62" fill="#8F8D90"/>
<path d="M276.12 157.56V13.56L276.32 13.64V157.47L276.12 157.56Z" fill="#8C8A8C"/>
<path d="M276.32 157.47V13.62L276.5 13.71V157.39L276.32 157.47Z" fill="#888688"/>
<path d="M276.5 157.39V13.71L276.67 13.79V157.31L276.5 157.39Z" fill="#838184"/>
<path d="M276.67 157.31V13.79C276.726 13.8106 276.78 13.8374 276.83 13.87V157.23L276.67 157.31Z" fill="#7F7C7F"/>
<path d="M276.83 157.23V13.87L277 14V157.14L276.84 157.23" fill="#79777A"/>
<path d="M277 157.14V14L277.16 14.09V157.09L277 157.17" fill="#737074"/>
<path d="M277.15 157.06V14L277.3 14.09V157L277.15 157.1" fill="#6A686B"/>
<path d="M277.3 157V14.13L277.46 14.24V156.86L277.3 156.96" fill="#565357"/>
<path d="M277.46 156.86V14.24L277.62 14.35V156.75L277.46 156.86Z" fill="#545155"/>
<path d="M277.62 156.75V14.35L277.8 14.48V156.61L277.62 156.75Z" fill="#535054"/>
<path d="M277.8 156.61V14.48L277.98 14.63V156.47L277.8 156.61Z" fill="#514E52"/>
<path d="M278 156.47V14.63L278.17 14.78V156.31L278 156.47Z" fill="#4F4C50"/>
<path d="M278.15 156.31V14.78L278.31 14.94V156.16L278.15 156.31Z" fill="#4D4B4E"/>
<path d="M278.31 156.16V14.94L278.43 15.08V156L278.31 156.14" fill="#4C494D"/>
<path d="M278.43 156V15.08L278.54 15.22V155.88C278.501 155.925 278.464 155.971 278.43 156.02" fill="#4A474B"/>
<path d="M278.54 155.88V15.22L278.61 15.33V155.77L278.54 155.88Z" fill="#484649"/>
<path d="M278.61 155.77V15.33L278.68 15.44V155.66L278.61 155.77Z" fill="#474447"/>
<path d="M278.68 155.66V15.44L278.74 15.55V155.55L278.68 155.66Z" fill="#454246"/>
<path d="M278.74 155.55V15.55L278.79 15.64V155.46L278.74 155.55Z" fill="#434144"/>
<path d="M278.83 155.37V15.73C278.826 15.7599 278.826 15.7901 278.83 15.82V155.27C278.825 155.303 278.825 155.337 278.83 155.37Z" fill="#403D40"/>
<path d="M278.9 155.19V15.91C278.895 15.9398 278.895 15.9702 278.9 16V155.1C278.895 155.13 278.895 155.16 278.9 155.19Z" fill="#3C3A3D"/>
<path d="M278.92 155.1V16C278.925 16.0298 278.925 16.0602 278.92 16.09V155C278.925 155.03 278.925 155.06 278.92 155.09" fill="#3A383B"/>
<path d="M279 154.83V16.27C279.005 16.3031 279.005 16.3368 279 16.37V154.73C279.004 154.763 279.004 154.797 279 154.83Z" fill="#353336"/>
<path d="M270.1 12.48C275 12.48 278.98 14.27 278.98 16.48C278.98 14.27 274.98 12.48 270.1 12.48Z" fill="#2D2B2D"/>
<path d="M270.09 12.48H267.87V158.62H270.09V12.48Z" fill="#4B484B"/>
<path d="M259 154.62V16.48C259.012 16.0133 259.177 15.5636 259.47 15.2V155.9C259.177 155.536 259.012 155.087 259 154.62Z" fill="#2D2B2D"/>
<path d="M259.45 155.9V15.2C259.504 15.1223 259.565 15.0488 259.63 14.98V156.12L259.45 155.9Z" fill="#2E2D2F"/>
<path d="M259.63 156.12V15L259.82 14.8V156.31L259.63 156.12Z" fill="#302E31"/>
<path d="M259.82 156.31V14.78L260.02 14.6V156.49L259.82 156.31Z" fill="#323032"/>
<path d="M260 156.49V14.6L260.21 14.43V156.66L260 156.49Z" fill="#343234"/>
<path d="M260.23 156.66V14.43L260.47 14.26V156.83L260.23 156.66Z" fill="#353336"/>
<path d="M260.47 156.83V14.26L260.73 14.1V157L260.47 156.83Z" fill="#373538"/>
<path d="M260.73 157V14.1L261.03 13.93V157.17L260.73 157Z" fill="#393739"/>
<path d="M261 157.17V13.93L261.33 13.76V157.34L261 157.17Z" fill="#3A383B"/>
<path d="M261.36 157.34V13.76L261.73 13.59V157.51L261.36 157.34Z" fill="#3C3A3D"/>
<path d="M261.73 157.51V13.59L262.14 13.42V157.68L261.73 157.51Z" fill="#3E3C3F"/>
<path d="M262.14 157.68V13.42L262.59 13.26V157.84L262.14 157.68Z" fill="#403D40"/>
<path d="M262.59 157.84V13.26L263.06 13.11V158L262.59 157.86" fill="#413F42"/>
<path d="M263.06 158V13.11L263.54 12.98V158.11L263.06 157.98" fill="#434144"/>
<path d="M263.54 158.11V13L264.01 12.89V158.22L263.54 158.11Z" fill="#454246"/>
<path d="M264 158.22V12.87L264.47 12.78V158.32L264 158.22Z" fill="#474447"/>
<path d="M264.48 158.32V12.78L264.91 12.7V158.39L264.48 158.32Z" fill="#484649"/>
<path d="M264.91 158.39V12.7L265.33 12.64V158.45L264.91 158.39Z" fill="#4A474B"/>
<path d="M265.33 158.45V12.64L265.74 12.59V158.5L265.33 158.45Z" fill="#4C494D"/>
<path d="M265.74 158.5V12.59H266.11V158.59H265.74" fill="#4D4B4E"/>
<path d="M266.11 158.54V12.54H266.48V158.54H266.11Z" fill="#4F4C50"/>
<path d="M266.48 158.57V12.57H266.83V158.59H266.48" fill="#514E52"/>
<path d="M266.83 158.59V12.5H267.18V158.61H266.83" fill="#535054"/>
<path d="M267.18 158.61V12.49H267.51V158.62H267.18" fill="#545155"/>
<path d="M267.51 158.62V12.48H267.84V158.62H267.51Z" fill="#565357"/>
<path d="M259 16.48C258.995 16.4001 258.995 16.3199 259 16.24C258.995 16.3199 258.995 16.4001 259 16.48Z" fill="#323032"/>
<path d="M259 16.24C259 16.14 259 16.04 259.06 15.94C259.06 16.04 259.01 16.14 259 16.24Z" fill="#302E31"/>
<path d="M259.06 15.94C259.1 15.8127 259.15 15.6889 259.21 15.57C259.15 15.6889 259.1 15.8127 259.06 15.94Z" fill="#2E2D2F"/>
<path d="M259.21 15.57C260.12 13.8 263.66 12.48 267.87 12.48C263.66 12.48 260.12 13.8 259.21 15.57Z" fill="#2D2B2D"/>
<path d="M342.23 11.57H196.09V14.35H342.23V11.57Z" fill="#4B484B"/>
<path d="M338.23 0.450012H200.09C199.756 0.457984 199.432 0.56597 199.16 0.760012H339.16C338.888 0.56597 338.564 0.457984 338.23 0.450012Z" fill="#2D2B2D"/>
<path d="M339.16 0.76001H199.16L199 0.89001H339.35L339.16 0.76001Z" fill="#2E2D2F"/>
<path d="M339.35 0.890037H199L198.8 1.00004H339.52L339.35 0.850037" fill="#302E31"/>
<path d="M339.52 1H198.8L198.65 1.16H339.65L339.52 1Z" fill="#323032"/>
<path d="M339.67 1.20001H198.67L198.52 1.37001H339.82L339.67 1.20001Z" fill="#343234"/>
<path d="M339.82 1.37H198.5L198.34 1.57H340L339.84 1.37" fill="#353336"/>
<path d="M340 1.57001H198.34L198.19 1.79001H340.13L340 1.57001Z" fill="#373538"/>
<path d="M340.13 1.79004H198.19C198.13 1.87004 198.08 1.96004 198.02 2.05004H340.3C340.24 1.96004 340.19 1.87004 340.13 1.79004Z" fill="#393739"/>
<path d="M340.3 2.04999H198L197.83 2.35999H340.47L340.3 2.04999Z" fill="#3A383B"/>
<path d="M340.47 2.35999H197.85L197.67 2.70999H340.67L340.49 2.35999" fill="#3C3A3D"/>
<path d="M340.65 2.71002H197.65L197.47 3.13002H340.83L340.65 2.71002Z" fill="#3E3C3F"/>
<path d="M340.83 3.13H197.49C197.42 3.29 197.35 3.45 197.29 3.62H341C340.94 3.45 340.87 3.29 340.8 3.13" fill="#403D40"/>
<path d="M341 3.62H197.29C197.23 3.8 197.16 3.98 197.1 4.17H341.22C341.16 3.98 341.09 3.8 341.03 3.62" fill="#413F42"/>
<path d="M341.22 4.16998H197.1C197.04 4.35998 196.98 4.55998 196.93 4.76998H341.39C341.34 4.55998 341.28 4.35998 341.22 4.16998Z" fill="#434144"/>
<path d="M341.39 4.77002H196.93C196.87 4.97002 196.81 5.18002 196.76 5.39002H341.56C341.5 5.18002 341.45 4.97002 341.39 4.77002Z" fill="#454246"/>
<path d="M341.56 5.39001H196.76C196.76 5.60001 196.67 5.81001 196.62 6.02001H341.7C341.65 5.81001 341.61 5.60001 341.56 5.39001Z" fill="#474447"/>
<path d="M341.7 6H196.62L196.5 6.64H341.82L341.7 6Z" fill="#484649"/>
<path d="M341.82 6.66003H196.5C196.5 6.87003 196.43 7.08003 196.4 7.29003H341.92C341.92 7.08003 341.86 6.87003 341.82 6.66003Z" fill="#4A474B"/>
<path d="M341.92 7.29004H196.4C196.4 7.50004 196.34 7.70004 196.31 7.91004H342L341.91 7.29004" fill="#4C494D"/>
<path d="M342 7.91003H196.31C196.31 8.11003 196.26 8.32003 196.24 8.52003H342.08C342.08 8.32003 342.03 8.11003 342.01 7.91003" fill="#4D4B4E"/>
<path d="M342.08 8.52002H196.24C196.24 8.72002 196.24 8.92002 196.19 9.13002H342.13C342.13 8.92002 342.13 8.72002 342.08 8.52002Z" fill="#4F4C50"/>
<path d="M342.13 9.13H196.19C196.19 9.32 196.19 9.52001 196.14 9.72001H342.14C342.14 9.52001 342.14 9.32 342.09 9.13" fill="#514E52"/>
<path d="M342.18 9.72003H196.18V10.32H342.28V9.72003" fill="#535054"/>
<path d="M342.21 10.32H196.11C196.11 10.51 196.11 10.71 196.11 10.91H342.22C342.22 10.71 342.22 10.51 342.22 10.32" fill="#545155"/>
<path d="M342.22 10.91H196.1C196.1 11.11 196.1 11.31 196.1 11.51H342.23C342.23 11.31 342.23 11.11 342.23 10.91" fill="#565357"/>
<path d="M342.23 11.51H196.09V11.57H342.23V11.51Z" fill="#6A686B"/>
<path d="M342.23 14.34H196.09V14.89H342.23V14.34Z" fill="#6A686B"/>
<path d="M342.23 14.89H196.09C196.09 15.09 196.09 15.29 196.09 15.49H342.19C342.19 15.29 342.19 15.09 342.19 14.89" fill="#737074"/>
<path d="M342.21 15.4901H196.11V16.1001H342.11V15.4901" fill="#79777A"/>
<path d="M342.18 16.1H196.18C196.18 16.31 196.18 16.53 196.18 16.74H342.18C342.18 16.53 342.18 16.31 342.18 16.1Z" fill="#7F7C7F"/>
<path d="M342.14 16.7401H196.14L196.2 17.4301H342.07C342.07 17.2001 342.12 16.9701 342.14 16.7401Z" fill="#838184"/>
<path d="M342.07 17.4301H196.24C196.24 17.6901 196.3 17.9501 196.34 18.2101H342C342.04 17.9501 342.07 17.6901 342.09 17.4301" fill="#888688"/>
<path d="M342 18.21H196.34C196.34 18.58 196.44 18.93 196.5 19.28H341.82C341.88 18.93 341.93 18.58 341.98 18.21" fill="#8C8A8C"/>
<path d="M341.82 19.28H196.5C196.61 19.87 196.73 20.43 196.88 20.96H341.44C341.59 20.43 341.71 19.87 341.82 19.28Z" fill="#8F8D90"/>
<path d="M341.44 21H196.88C196.94 21.25 197.01 21.48 197.08 21.71H341.24C341.31 21.48 341.38 21.25 341.44 21Z" fill="#8C8A8C"/>
<path d="M341.24 21.67H197.08L197.23 22.11H341.09L341.24 21.67Z" fill="#888688"/>
<path d="M341.09 22.11H197.23L197.35 22.44H341L341.12 22.11" fill="#838184"/>
<path d="M341 22.44H197.35L197.47 22.73H340.85L340.97 22.44" fill="#7F7C7F"/>
<path d="M340.85 22.73H197.47C197.47 22.82 197.54 22.9 197.57 22.98H340.75C340.75 22.9 340.82 22.82 340.85 22.73Z" fill="#79777A"/>
<path d="M340.75 23H197.57L197.68 23.23H340.68L340.79 23" fill="#737074"/>
<path d="M340.64 23.21H197.64L197.74 23.42H340.54L340.64 23.21Z" fill="#6A686B"/>
<path d="M340.54 23.42H197.78L197.89 23.63H340.43L340.54 23.42Z" fill="#565357"/>
<path d="M340.43 23.63H197.89L198 23.82H340.32L340.43 23.63Z" fill="#545155"/>
<path d="M340.32 23.82H198C198.04 23.8922 198.083 23.9623 198.13 24.03H340.19C340.237 23.9623 340.28 23.8922 340.32 23.82Z" fill="#535054"/>
<path d="M340.19 24H198.13L198.25 24.19H340.07L340.19 24Z" fill="#514E52"/>
<path d="M340.07 24.22H198.25L198.4 24.42H339.92L340.07 24.22Z" fill="#4F4C50"/>
<path d="M339.92 24.42H198.4L198.55 24.6H339.77L339.92 24.42Z" fill="#4D4B4E"/>
<path d="M339.77 24.6H198.55L198.69 24.76H339.63L339.77 24.6Z" fill="#4C494D"/>
<path d="M339.63 24.76H198.69L198.84 24.9H339.48L339.63 24.76Z" fill="#4A474B"/>
<path d="M339.48 24.9H198.84L199 25H339.37L339.48 24.91" fill="#484649"/>
<path d="M339.37 25H199C199.029 25.0381 199.067 25.0689 199.11 25.09H339.31C339.353 25.0689 339.391 25.0381 339.42 25" fill="#474447"/>
<path d="M339.26 25.08H199.06L199.16 25.15H339.16L339.26 25.08Z" fill="#454246"/>
<path d="M339.16 25.15H199.16L199.25 25.21H339.07L339.16 25.15Z" fill="#434144"/>
<path d="M339.07 25.21H199.25L199.33 25.26H339L339.08 25.21" fill="#413F42"/>
<path d="M338.23 0.450012C340.44 0.450012 342.23 5.45001 342.23 11.57C342.23 5.43001 340.44 0.450012 338.23 0.450012Z" fill="#2D2B2D"/>
<path d="M342.23 14.34C342.23 20.03 340.69 24.73 338.7 25.34C340.7 24.69 342.23 19.99 342.23 14.34Z" fill="#2D2B2D"/>
<path d="M338.7 25.38C338.609 25.4095 338.515 25.4296 338.42 25.44C338.515 25.4296 338.609 25.4095 338.7 25.38Z" fill="#2E2D2F"/>
<path d="M196.1 15C196.122 16.4826 196.266 17.9609 196.53 19.42C196.266 17.9609 196.122 16.4826 196.1 15Z" fill="#343234"/>
<path d="M196.53 19.41C196.722 20.5292 197.03 21.6252 197.45 22.68C197.03 21.6252 196.722 20.5292 196.53 19.41Z" fill="#353336"/>
<path d="M197.45 22.6801C197.774 23.668 198.383 24.538 199.2 25.1801C198.383 24.538 197.774 23.668 197.45 22.6801Z" fill="#373538"/>
<path d="M199.2 25.1801C199.31 25.2506 199.427 25.3077 199.55 25.3501C199.427 25.3077 199.31 25.2506 199.2 25.1801Z" fill="#353336"/>
<path d="M199.55 25.35C199.634 25.3858 199.721 25.4126 199.81 25.43C199.721 25.4126 199.634 25.3858 199.55 25.35Z" fill="#343234"/>
<path d="M200.09 0.450012C199.23 0.450012 198.43 1.21001 197.78 2.50001C198.43 1.21001 199.23 0.500012 200.09 0.500012" fill="#2D2B2D"/>
<path d="M197.78 2.5C197.459 3.14233 197.194 3.81155 196.99 4.5C197.194 3.81155 197.459 3.14233 197.78 2.5Z" fill="#2E2D2F"/>
<path d="M197 4.53003C196.7 5.5854 196.479 6.66174 196.34 7.75003C196.479 6.66174 196.7 5.5854 197 4.53003Z" fill="#302E31"/>
<path d="M196.33 7.75C196.166 9.01663 196.085 10.2928 196.09 11.57C196.085 10.2928 196.166 9.01663 196.33 7.75Z" fill="#323032"/>
<path d="M342.23 14.34C342.23 20.03 340.69 24.73 338.7 25.34C340.7 24.69 342.23 19.99 342.23 14.34Z" fill="#2D2B2D"/>
<path d="M338.7 25.38C338.609 25.4095 338.515 25.4296 338.42 25.44C338.515 25.4296 338.609 25.4095 338.7 25.38Z" fill="#2E2D2F"/>
<path d="M196.09 14.34H342.23V14.4H196.09V14.34Z" fill="#6A686B"/>
<path d="M196.09 14.4H342.23C342.23 14.6 342.23 14.8 342.23 15H196.1C196.1 14.8 196.1 14.6 196.1 14.4" fill="#565357"/>
<path d="M196.1 15H342.22C342.22 15.2 342.22 15.4 342.22 15.59H196.11C196.11 15.4 196.11 15.2 196.11 15" fill="#545155"/>
<path d="M196.11 15.59H342.21V16.18H196.21V15.59" fill="#535054"/>
<path d="M196.14 16.1801H342.14C342.14 16.3901 342.14 16.5801 342.09 16.7801H196.19C196.19 16.5801 196.19 16.3901 196.14 16.1801Z" fill="#514E52"/>
<path d="M196.19 16.78H342.13C342.13 16.99 342.13 17.19 342.08 17.39H196.24C196.24 17.19 196.24 16.99 196.19 16.78Z" fill="#4F4C50"/>
<path d="M196.24 17.39H342.08C342.08 17.59 342.03 17.79 342.01 18H196.31C196.31 17.79 196.26 17.59 196.24 17.39Z" fill="#4D4B4E"/>
<path d="M196.31 18H342L341.91 18.62H196.4C196.4 18.41 196.34 18.21 196.31 18Z" fill="#4C494D"/>
<path d="M196.4 18.6201H341.92C341.92 18.8301 341.86 19.0401 341.82 19.2501H196.5C196.5 19.0401 196.43 18.8301 196.4 18.6201Z" fill="#4A474B"/>
<path d="M196.5 19.25H341.82C341.82 19.46 341.74 19.68 341.7 19.88H196.62L196.5 19.25Z" fill="#484649"/>
<path d="M196.62 19.88H341.7C341.65 20.1 341.61 20.31 341.56 20.52H196.76C196.76 20.31 196.67 20.1 196.62 19.88Z" fill="#474447"/>
<path d="M196.76 20.52H341.56C341.5 20.73 341.45 20.94 341.39 21.14H196.93C196.87 20.94 196.81 20.73 196.76 20.52Z" fill="#454246"/>
<path d="M196.93 21.14H341.39C341.34 21.35 341.28 21.55 341.22 21.74H197.1C197.04 21.55 196.98 21.35 196.93 21.14Z" fill="#434144"/>
<path d="M197.1 21.7401H341.22C341.16 21.9301 341.09 22.1101 341.03 22.2901H197.29C197.23 22.1101 197.16 21.9301 197.1 21.7401Z" fill="#413F42"/>
<path d="M197.29 22.29H341C340.94 22.46 340.87 22.62 340.8 22.78H197.48C197.42 22.62 197.35 22.46 197.29 22.29Z" fill="#403D40"/>
<path d="M197.48 22.78H340.83L340.65 23.19H197.65C197.59 23.06 197.53 22.92 197.46 22.78" fill="#3E3C3F"/>
<path d="M197.67 23.19H340.67L340.49 23.55H197.85C197.79 23.4433 197.73 23.3233 197.67 23.19Z" fill="#3C3A3D"/>
<path d="M197.85 23.55H340.47L340.3 23.8601H198L197.83 23.55" fill="#3A383B"/>
<path d="M198 23.86H340.3C340.24 23.95 340.19 24.04 340.13 24.12H198.19C198.13 24.04 198.08 23.95 198.02 23.86" fill="#393739"/>
<path d="M198.19 24.1201H340.13L339.98 24.3401H198.34L198.19 24.1201Z" fill="#373538"/>
<path d="M198.34 24.34H340L339.84 24.54H198.5L198.34 24.34Z" fill="#353336"/>
<path d="M198.5 24.54H339.82L339.67 24.71H198.67L198.52 24.54" fill="#343234"/>
<path d="M198.65 24.71H339.65L339.5 24.87H198.8L198.65 24.71Z" fill="#323032"/>
<path d="M198.8 24.8701H339.52L339.35 25.0101H199L198.83 24.8701" fill="#302E31"/>
<path d="M199 25H339.35L339.16 25.14H199.16L199 25Z" fill="#2E2D2F"/>
<path d="M199.16 25.15H339.16C338.887 25.3411 338.563 25.4456 338.23 25.45H200.09C199.757 25.4456 199.433 25.3411 199.16 25.15Z" fill="#2D2B2D"/>
<path d="M196.1 15C196.122 16.4826 196.266 17.9609 196.53 19.42C196.266 17.9609 196.122 16.4826 196.1 15Z" fill="#343234"/>
<path d="M196.53 19.41C196.722 20.5292 197.03 21.6252 197.45 22.68C197.03 21.6252 196.722 20.5292 196.53 19.41Z" fill="#353336"/>
<path d="M197.45 22.6801C197.774 23.668 198.383 24.538 199.2 25.1801C198.383 24.538 197.774 23.668 197.45 22.6801Z" fill="#373538"/>
<path d="M199.2 25.1801C199.31 25.2506 199.427 25.3077 199.55 25.3501C199.427 25.3077 199.31 25.2506 199.2 25.1801Z" fill="#353336"/>
<path d="M199.55 25.35C199.634 25.3858 199.721 25.4126 199.81 25.43C199.721 25.4126 199.634 25.3858 199.55 25.35Z" fill="#343234"/>
<path d="M342.23 11.57H196.09V14.35H342.23V11.57Z" fill="#4B484B"/>
<path d="M338.23 0.450012C340.44 0.450012 342.23 5.45001 342.23 11.57C342.23 5.43001 340.44 0.450012 338.23 0.450012Z" fill="#2D2B2D"/>
<path d="M199.25 0.700012H339.07L339.16 0.750012H199.16L199.25 0.700012Z" fill="#434144"/>
<path d="M199.16 0.750061H339.16L339.26 0.830061H199.06L199.16 0.750061Z" fill="#454246"/>
<path d="M199.06 0.830017H339.26L339.37 0.910017H199L199.11 0.830017" fill="#474447"/>
<path d="M199 0.910034H339.37L339.48 1.01003H198.84L198.95 0.910034" fill="#484649"/>
<path d="M198.84 1.00006H339.48L339.63 1.14006H198.69L198.84 1.00006Z" fill="#4A474B"/>
<path d="M198.69 1.15002H339.63L339.77 1.31002H198.55L198.69 1.15002Z" fill="#4C494D"/>
<path d="M198.55 1.31006H339.77L339.92 1.49006H198.4L198.55 1.31006Z" fill="#4D4B4E"/>
<path d="M198.4 1.49005H339.92L340.07 1.69005H198.25L198.4 1.49005Z" fill="#4F4C50"/>
<path d="M198.25 1.69006H340.07L340.19 1.88006H198.13L198.25 1.69006Z" fill="#514E52"/>
<path d="M198.13 1.88007H340.19C340.237 1.94778 340.28 2.01787 340.32 2.09007H198C198.04 2.01787 198.083 1.94778 198.13 1.88007Z" fill="#535054"/>
<path d="M198 2.09003H340.32L340.43 2.28003H197.89L198 2.09003Z" fill="#545155"/>
<path d="M197.89 2.28003H340.43L340.54 2.49003H197.78L197.89 2.28003Z" fill="#565357"/>
<path d="M197.78 2.49005H340.54L340.64 2.70005H197.64L197.74 2.49005" fill="#6A686B"/>
<path d="M197.68 2.70001H340.68L340.79 2.93001H197.57L197.68 2.70001Z" fill="#737074"/>
<path d="M197.57 2.93005H340.75C340.75 3.01005 340.82 3.09005 340.85 3.18005H197.47C197.47 3.09005 197.54 3.01005 197.57 2.93005Z" fill="#79777A"/>
<path d="M197.47 3.18005H340.85L340.97 3.47005H197.35L197.47 3.18005Z" fill="#7F7C7F"/>
<path d="M197.35 3.47003H341L341.12 3.80003H197.23L197.35 3.47003Z" fill="#838184"/>
<path d="M197.23 3.80005H341.09L341.24 4.24005H197.08L197.23 3.80005Z" fill="#888688"/>
<path d="M197.08 4.24005H341.24C341.31 4.47005 341.38 4.70005 341.44 4.95005H196.88C196.94 4.70005 197.01 4.47005 197.08 4.24005Z" fill="#8C8A8C"/>
<path d="M196.88 5.00006H341.44C341.59 5.52006 341.71 6.09006 341.82 6.68006H196.5C196.61 6.09006 196.73 5.52006 196.88 5.00006Z" fill="#8F8D90"/>
<path d="M196.5 6.63007H341.82C341.88 6.98007 341.93 7.33007 341.98 7.70007H196.34C196.34 7.33007 196.44 6.98007 196.5 6.63007Z" fill="#8C8A8C"/>
<path d="M196.34 7.70001H342C342.04 7.96001 342.07 8.22001 342.09 8.48001H196.24C196.24 8.22001 196.3 7.96001 196.34 7.70001Z" fill="#888688"/>
<path d="M196.24 8.48004H342.07C342.07 8.71004 342.12 8.94004 342.14 9.17004H196.14L196.2 8.48004" fill="#838184"/>
<path d="M196.18 9.17004H342.18C342.18 9.38004 342.18 9.60004 342.18 9.81004H196.18C196.18 9.60004 196.18 9.38004 196.18 9.17004Z" fill="#7F7C7F"/>
<path d="M196.14 9.81006H342.14V10.4201H196.11V9.81006" fill="#79777A"/>
<path d="M196.11 10.42H342.21C342.21 10.62 342.21 10.82 342.21 11.02H196.09C196.09 10.82 196.09 10.62 196.09 10.42" fill="#737074"/>
<path d="M196.09 11.0001H342.23V11.5501H196.09V11.0001Z" fill="#6A686B"/>
<path d="M200.09 0.450012C199.23 0.450012 198.43 1.21001 197.78 2.50001C198.43 1.21001 199.23 0.500012 200.09 0.500012" fill="#2D2B2D"/>
<path d="M197.78 2.5C197.459 3.14233 197.194 3.81155 196.99 4.5C197.194 3.81155 197.459 3.14233 197.78 2.5Z" fill="#2E2D2F"/>
<path d="M197 4.53003C196.7 5.5854 196.479 6.66174 196.34 7.75003C196.479 6.66174 196.7 5.5854 197 4.53003Z" fill="#302E31"/>
<path d="M196.33 7.75C196.166 9.01663 196.085 10.2928 196.09 11.57C196.085 10.2928 196.166 9.01663 196.33 7.75Z" fill="#323032"/>
<path d="M342.83 11.11H291.83V13.89H342.83V11.11Z" fill="#242424"/>
<path d="M338.83 0H295.83C295.497 0.00442462 295.173 0.108955 294.9 0.3H339.76C339.488 0.107244 339.164 0.0025371 338.83 0" fill="#242424"/>
<path d="M339.76 0.299988H294.9L294.71 0.439988H340C339.941 0.387783 339.877 0.340932 339.81 0.299988" fill="#242424"/>
<path d="M340 0.440002H294.71L294.54 0.590002H340.12L340 0.440002Z" fill="#242424"/>
<path d="M340.12 0.590027H294.54L294.39 0.740027H340.27L340.12 0.590027Z" fill="#242424"/>
<path d="M340.27 0.73999H294.39L294.24 0.90999H340.43L340.27 0.73999Z" fill="#242424"/>
<path d="M340.43 0.909973H294.24L294.09 1.10997H340.58L340.43 0.909973Z" fill="#242424"/>
<path d="M340.58 1.10999H294.09C294.031 1.18257 293.978 1.25945 293.93 1.33999H340.74L340.58 1.10999Z" fill="#242424"/>
<path d="M340.74 1.34003H293.93C293.87 1.42003 293.82 1.51003 293.77 1.59003H340.9L340.74 1.34003Z" fill="#242424"/>
<path d="M340.9 1.59003H293.77L293.59 1.90003H341.07L340.9 1.59003Z" fill="#242424"/>
<path d="M341.07 1.90002H293.59L293.41 2.26002H341.25L341.07 1.90002Z" fill="#242424"/>
<path d="M341.25 2.26001H293.41C293.35 2.39334 293.29 2.53334 293.23 2.68001H341.44C341.385 2.53654 341.321 2.39632 341.25 2.26001Z" fill="#242424"/>
<path d="M341.44 2.67999H293.23C293.16 2.82999 293.1 2.99999 293.03 3.16999H341.63C341.57 2.99999 341.5 2.82999 341.44 2.67999Z" fill="#242424"/>
<path d="M341.63 3.16998H293C292.94 3.33998 292.88 3.52998 292.82 3.71998H341.82C341.76 3.52998 341.7 3.33998 341.63 3.16998Z" fill="#242424"/>
<path d="M341.82 3.71997H292.82C292.75 3.91328 292.69 4.11023 292.64 4.30997H342L341.82 3.71997Z" fill="#242424"/>
<path d="M342 4.31H292.67C292.61 4.51 292.56 4.72 292.51 4.93H342.16C342.11 4.72 342.05 4.51 342 4.31Z" fill="#242424"/>
<path d="M342.16 4.92999H292.51L292.36 5.56999H342.3C342.3 5.34999 342.21 5.13999 342.16 4.92999Z" fill="#242424"/>
<path d="M342.3 5.57001H292.36L292.24 6.21001H342.42C342.42 5.99001 342.34 5.78001 342.3 5.57001Z" fill="#242424"/>
<path d="M342.42 6.21002H292.24C292.24 6.41002 292.17 6.62002 292.14 6.84002H342.53C342.53 6.62002 342.46 6.41002 342.42 6.21002Z" fill="#242424"/>
<path d="M342.53 6.84003H292.14L292.05 7.46003H342.61C342.61 7.25003 342.56 7.04003 342.53 6.84003Z" fill="#242424"/>
<path d="M342.61 7.46002H292.05C292.05 7.66002 292 7.86002 291.98 8.07002H342.68C342.68 7.86002 342.68 7.66002 342.61 7.46002Z" fill="#242424"/>
<path d="M342.68 8.07001H292C292 8.27001 292 8.47001 291.95 8.67001H342.76L342.7 8.07001" fill="#242424"/>
<path d="M342.74 8.66998H291.93C291.93 8.86998 291.93 9.06998 291.93 9.26998H342.82C342.82 9.06998 342.82 8.86998 342.82 8.66998" fill="#242424"/>
<path d="M342.78 9.27002H291.89C291.88 9.46656 291.88 9.66348 291.89 9.86002H342.84V9.27002" fill="#242424"/>
<path d="M342.81 9.85999H291.86C291.86 10.06 291.86 10.26 291.86 10.46H342.86C342.86 10.26 342.86 10.06 342.86 9.85999" fill="#242424"/>
<path d="M342.83 10.46H291.83C291.83 10.66 291.83 10.86 291.83 11.06H342.83V10.46Z" fill="#242424"/>
<path d="M342.83 13.89H291.83C291.83 14.07 291.83 14.25 291.83 14.43H342.83V13.89Z" fill="#1F1F1F"/>
<path d="M342.83 14.43H291.83C291.83 14.64 291.83 14.84 291.83 15.03H342.83C342.83 14.84 342.83 14.64 342.83 14.43Z" fill="#2B2B2B"/>
<path d="M342.81 15H291.81V15.61H342.71C342.72 15.4068 342.72 15.2032 342.71 15" fill="#353535"/>
<path d="M342.78 15.64H291.88C291.88 15.86 291.88 16.07 291.88 16.28H342.7C342.7 16.07 342.7 15.86 342.7 15.64" fill="#3D3D3D"/>
<path d="M342.74 16.28H291.92C291.92 16.52 291.92 16.74 291.99 16.97H342.68C342.68 16.74 342.68 16.52 342.74 16.28Z" fill="#444444"/>
<path d="M342.68 17H292C292 17.27 292.06 17.53 292.09 17.79H342.59C342.59 17.53 342.66 17.27 342.69 17" fill="#4B4B4B"/>
<path d="M342.58 17.76H292.08C292.13 18.12 292.18 18.48 292.25 18.83H342.42C342.48 18.48 342.54 18.12 342.58 17.76Z" fill="#515151"/>
<path d="M342.42 18.83H292.25C292.35 19.42 292.48 19.98 292.62 20.51H342.05C342.19 19.98 342.31 19.42 342.42 18.83Z" fill="#575757"/>
<path d="M342.05 20.51H292.62C292.68 20.75 292.75 20.99 292.82 21.22H341.82L342.03 20.51" fill="#515151"/>
<path d="M341.84 21.22H292.84L292.99 21.66H341.71L341.86 21.22" fill="#4B4B4B"/>
<path d="M341.69 21.66H293L293.12 21.98H341.6L341.72 21.66" fill="#444444"/>
<path d="M341.57 22H293.09L293.21 22.3H341.46L341.57 22Z" fill="#3D3D3D"/>
<path d="M341.46 22.28H293.21L293.31 22.52H341.31L341.42 22.28" fill="#353535"/>
<path d="M341.35 22.52H293.35C293.35 22.6 293.42 22.68 293.46 22.75H341.29C341.29 22.68 341.36 22.6 341.39 22.52" fill="#2B2B2B"/>
<path d="M341.25 22.75H293.42C293.451 22.8262 293.488 22.8998 293.53 22.97H341.14C341.14 22.9 341.21 22.83 341.25 22.75Z" fill="#1F1F1F"/>
<path d="M341.14 23H293.53L293.63 23.2H341C341 23.14 341.07 23.07 341.11 23" fill="#242424"/>
<path d="M341 23.17H293.6C293.641 23.2346 293.677 23.3013 293.71 23.37H340.89C340.931 23.3055 340.967 23.2388 341 23.17Z" fill="#242424"/>
<path d="M340.92 23.37H293.74L293.87 23.57H340.8L340.92 23.37Z" fill="#242424"/>
<path d="M340.8 23.57H293.87L293.99 23.76H340.67C340.67 23.7 340.76 23.64 340.8 23.57Z" fill="#242424"/>
<path d="M340.67 23.76H294L294.15 23.96H340.53L340.68 23.76" fill="#242424"/>
<path d="M340.52 24H294.14L294.29 24.19H340.37L340.52 24Z" fill="#242424"/>
<path d="M340.37 24.15H294.29L294.43 24.3H340.23L340.37 24.15Z" fill="#242424"/>
<path d="M340.23 24.3H294.43L294.58 24.44H340.09L340.23 24.3Z" fill="#242424"/>
<path d="M340.09 24.44H294.58C294.612 24.4784 294.649 24.5121 294.69 24.54H340L340.11 24.44" fill="#242424"/>
<path d="M340 24.54H294.69L294.8 24.63H339.86L339.98 24.54" fill="#242424"/>
<path d="M339.86 24.63H294.8L294.9 24.7H339.76L339.86 24.63Z" fill="#242424"/>
<path d="M339.76 24.7H294.9L294.99 24.75H339.67L339.76 24.7Z" fill="#242424"/>
<path d="M339.67 24.75H295L295.09 24.8H339.6L339.68 24.75" fill="#242424"/>
<path d="M339.59 24.8H295.08L295.16 24.85H339.5L339.59 24.8Z" fill="#242424"/>
<path d="M338.83 0C341.04 0 342.83 5 342.83 11.11C342.83 5 341 0 338.83 0Z" fill="#242424"/>
<path d="M342.83 13.89C342.83 19.58 341.29 24.27 339.31 24.89C341.31 24.24 342.83 19.55 342.83 13.89Z" fill="#242424"/>
<path d="M339.31 24.92C339.21 24.9575 339.106 24.9843 339 25C339.099 24.9862 339.196 24.9628 339.29 24.93" fill="#242424"/>
<path d="M291.84 14.53C291.862 16.016 292.006 17.4976 292.27 18.96C292.006 17.4976 291.862 16.016 291.84 14.53Z" fill="#242424"/>
<path d="M292.27 19C292.464 20.1185 292.773 21.2143 293.19 22.27C292.773 21.2143 292.464 20.1185 292.27 19Z" fill="#242424"/>
<path d="M293.19 22.23C293.516 23.2138 294.125 24.0798 294.94 24.72C294.125 24.0798 293.516 23.2138 293.19 22.23Z" fill="#242424"/>
<path d="M294.94 24.72C295.048 24.7956 295.166 24.8561 295.29 24.9C295.166 24.8561 295.048 24.7956 294.94 24.72Z" fill="#242424"/>
<path d="M295.29 24.9C295.374 24.9314 295.461 24.9548 295.55 24.97C295.461 24.9548 295.374 24.9314 295.29 24.9Z" fill="#242424"/>
<path d="M295.55 25C295.626 25.0097 295.704 25.0097 295.78 25C295.704 25.0097 295.626 25.0097 295.55 25Z" fill="#242424"/>
<path d="M295.83 0C294.97 0 294.17 0.76 293.52 2C294.17 0.72 294.97 0 295.83 0Z" fill="#242424"/>
<path d="M293.52 2C293.2 2.64158 292.939 3.31102 292.74 4C292.939 3.31102 293.2 2.64158 293.52 2Z" fill="#242424"/>
<path d="M292.74 4.07001C292.432 5.12728 292.208 6.20733 292.07 7.30001C292.208 6.20733 292.432 5.12728 292.74 4.07001Z" fill="#242424"/>
<path d="M292.07 7.29999C291.911 8.56374 291.831 9.83622 291.83 11.11C291.831 9.83622 291.911 8.56374 292.07 7.29999Z" fill="#242424"/>
<path d="M342.83 13.89C342.83 19.58 341.29 24.27 339.31 24.89C341.31 24.24 342.83 19.55 342.83 13.89Z" fill="#242424"/>
<path d="M339.31 24.92C339.21 24.9575 339.106 24.9843 339 25C339.099 24.9862 339.196 24.9628 339.29 24.93" fill="#242424"/>
<path d="M291.83 13.94H342.83V14.54H291.83C291.83 14.34 291.83 14.14 291.83 13.94Z" fill="#242424"/>
<path d="M291.84 14.54H342.84C342.84 14.74 342.84 14.94 342.84 15.14H291.86C291.86 14.94 291.86 14.74 291.86 14.54" fill="#242424"/>
<path d="M291.86 15.14H342.81V15.73H291.89C291.88 15.5335 291.88 15.3366 291.89 15.14" fill="#242424"/>
<path d="M291.89 15.73H342.78C342.78 15.93 342.78 16.13 342.78 16.33H291.93C291.93 16.13 291.93 15.93 291.93 15.73" fill="#242424"/>
<path d="M291.93 16.33H342.74L342.68 16.93H292C292 16.73 292 16.53 291.95 16.33" fill="#242424"/>
<path d="M292 16.93H342.7C342.7 17.14 342.7 17.34 342.63 17.54H292.05C292.05 17.34 292 17.14 291.98 16.93" fill="#242424"/>
<path d="M292.05 17.54H342.61C342.61 17.75 342.56 17.96 342.53 18.16H292.14L292.05 17.54Z" fill="#242424"/>
<path d="M292.14 18.16H342.53C342.53 18.38 342.46 18.59 342.42 18.79H292.24C292.24 18.59 292.17 18.38 292.14 18.16Z" fill="#242424"/>
<path d="M292.24 18.79H342.42C342.42 19.01 342.34 19.22 342.3 19.43H292.36L292.24 18.79Z" fill="#242424"/>
<path d="M292.36 19.43H342.3C342.3 19.65 342.21 19.86 342.16 20.07H292.51L292.36 19.43Z" fill="#242424"/>
<path d="M292.51 20.07H342.16C342.11 20.28 342.05 20.49 342 20.69H292.67C292.61 20.49 292.56 20.28 292.51 20.07Z" fill="#242424"/>
<path d="M292.67 20.69H342L341.82 21.28H292.82C292.75 21.0867 292.69 20.8897 292.64 20.69" fill="#242424"/>
<path d="M292.85 21.28H341.85C341.79 21.47 341.73 21.66 341.66 21.83H293C292.94 21.66 292.88 21.47 292.82 21.28" fill="#242424"/>
<path d="M293 21.83H341.6C341.54 22 341.47 22.17 341.41 22.32H293.23C293.16 22.17 293.1 22 293.03 21.83" fill="#242424"/>
<path d="M293.23 22.32H341.44C341.385 22.4635 341.321 22.6037 341.25 22.74H293.41C293.35 22.6133 293.29 22.4733 293.23 22.32Z" fill="#242424"/>
<path d="M293.41 22.74H341.25L341.07 23.1H293.59L293.41 22.74Z" fill="#242424"/>
<path d="M293.59 23.1H341.07C341.019 23.2033 340.963 23.3035 340.9 23.4H293.77L293.59 23.1Z" fill="#242424"/>
<path d="M293.77 23.4H340.9L340.74 23.66H293.93C293.871 23.5771 293.817 23.4902 293.77 23.4Z" fill="#242424"/>
<path d="M293.93 23.66H340.74L340.58 23.89H294.08L293.93 23.66Z" fill="#242424"/>
<path d="M294.08 23.89H340.58L340.43 24.09H294.24L294.08 23.89Z" fill="#242424"/>
<path d="M294.24 24.09H340.43L340.27 24.26H294.39L294.24 24.09Z" fill="#242424"/>
<path d="M294.39 24.26H340.27L340.12 24.41H294.54L294.39 24.26Z" fill="#242424"/>
<path d="M294.54 24.41H340.12L339.95 24.56H294.71L294.54 24.41Z" fill="#242424"/>
<path d="M294.71 24.56H340C339.941 24.6122 339.877 24.6591 339.81 24.7H294.9L294.71 24.56Z" fill="#242424"/>
<path d="M294.9 24.7H339.76C339.488 24.8928 339.164 24.9975 338.83 25H295.83C295.497 24.9956 295.173 24.8911 294.9 24.7Z" fill="#242424"/>
<path d="M291.84 14.53C291.862 16.016 292.006 17.4976 292.27 18.96C292.006 17.4976 291.862 16.016 291.84 14.53Z" fill="#242424"/>
<path d="M292.27 19C292.464 20.1185 292.773 21.2143 293.19 22.27C292.773 21.2143 292.464 20.1185 292.27 19Z" fill="#242424"/>
<path d="M293.19 22.23C293.516 23.2138 294.125 24.0798 294.94 24.72C294.125 24.0798 293.516 23.2138 293.19 22.23Z" fill="#242424"/>
<path d="M294.94 24.72C295.048 24.7956 295.166 24.8561 295.29 24.9C295.166 24.8561 295.048 24.7956 294.94 24.72Z" fill="#242424"/>
<path d="M295.29 24.9C295.374 24.9314 295.461 24.9548 295.55 24.97C295.461 24.9548 295.374 24.9314 295.29 24.9Z" fill="#242424"/>
<path d="M295.55 25C295.626 25.0097 295.704 25.0097 295.78 25C295.704 25.0097 295.626 25.0097 295.55 25Z" fill="#242424"/>
<path d="M342.83 11.11H291.83V13.89H342.83V11.11Z" fill="#242424"/>
<path d="M338.83 0C341.04 0 342.83 5 342.83 11.11C342.83 5 341 0 338.83 0Z" fill="#242424"/>
<path d="M295.16 0.150024H339.5L339.59 0.200024H295.08L295.16 0.150024Z" fill="#242424"/>
<path d="M294.9 0.299988H339.76L339.86 0.369988H294.8L294.9 0.299988Z" fill="#242424"/>
<path d="M294.8 0.369995H339.86L339.98 0.459995H294.69L294.8 0.369995Z" fill="#242424"/>
<path d="M294.69 0.460022H340L340.11 0.560022H294.58C294.612 0.521592 294.649 0.487915 294.69 0.460022Z" fill="#242424"/>
<path d="M294.58 0.559998H340.09L340.23 0.699998H294.43L294.58 0.559998Z" fill="#242424"/>
<path d="M294.43 0.700012H340.23L340.37 0.850012H294.29L294.43 0.700012Z" fill="#242424"/>
<path d="M294.29 0.849976H340.37L340.52 1.03998H294.14L294.29 0.849976Z" fill="#242424"/>
<path d="M294.14 1H340.52L340.67 1.2H294L294.15 1" fill="#242424"/>
<path d="M294 1.23999H340.68C340.68 1.29999 340.77 1.35999 340.81 1.42999H293.87L293.99 1.23999" fill="#242424"/>
<path d="M293.87 1.42999H340.8L340.92 1.62999H293.74L293.87 1.42999Z" fill="#242424"/>
<path d="M293.74 1.63H340.92C340.961 1.69452 340.997 1.7613 341.03 1.83H293.63C293.671 1.76549 293.707 1.69871 293.74 1.63Z" fill="#242424"/>
<path d="M293.63 1.83002H341C341 1.89002 341.07 1.96002 341.11 2.03002H293.53L293.63 1.83002Z" fill="#242424"/>
<path d="M293.53 2H341.14C341.14 2.07 341.21 2.14 341.25 2.22H293.42C293.451 2.1438 293.487 2.07022 293.53 2Z" fill="#1F1F1F"/>
<path d="M293.42 2.25H341.25C341.25 2.32 341.32 2.4 341.35 2.48H293.35C293.35 2.4 293.42 2.32 293.46 2.25" fill="#2B2B2B"/>
<path d="M293.31 2.47998H341.31L341.42 2.71998H293.21L293.31 2.47998Z" fill="#353535"/>
<path d="M293.21 2.71997H341.46L341.57 3.01997H293.09L293.21 2.71997Z" fill="#3D3D3D"/>
<path d="M293.09 3H341.57L341.69 3.32H293L293.12 3" fill="#444444"/>
<path d="M293 3.34003H341.72L341.87 3.78003H292.87L293.02 3.34003" fill="#4B4B4B"/>
<path d="M292.82 3.78003H341.82L342.03 4.49003H292.62C292.68 4.25003 292.75 4.01003 292.82 3.78003Z" fill="#515151"/>
<path d="M292.62 4.48999H342.05C342.19 5.01999 342.31 5.57999 342.42 6.16999H292.25C292.35 5.57999 292.48 5.01999 292.62 4.48999Z" fill="#575757"/>
<path d="M292.25 6.16998H342.42C342.48 6.51998 342.54 6.87998 342.58 7.24998H292.08C292.13 6.87998 292.18 6.51998 292.25 6.16998Z" fill="#515151"/>
<path d="M292.08 7.25H342.58C342.58 7.5 342.65 7.76 342.68 8.03H292C292 7.76 292.06 7.5 292.09 7.25" fill="#4B4B4B"/>
<path d="M292 8H342.69C342.69 8.23 342.69 8.45 342.75 8.69H291.92C291.92 8.45 291.92 8.23 291.99 8" fill="#444444"/>
<path d="M291.92 8.71997H342.74C342.74 8.92997 342.74 9.13997 342.74 9.35997H291.84C291.84 9.13997 291.84 8.92997 291.84 8.71997" fill="#3D3D3D"/>
<path d="M291.88 9.35999H342.78C342.79 9.56319 342.79 9.76678 342.78 9.96999H291.78V9.35999" fill="#353535"/>
<path d="M291.85 10H342.85C342.85 10.19 342.85 10.39 342.85 10.6H291.85C291.85 10.39 291.85 10.19 291.85 10Z" fill="#2B2B2B"/>
<path d="M291.84 10.57H342.84V11.11H291.84C291.84 10.93 291.84 10.75 291.84 10.57Z" fill="#1F1F1F"/>
<path d="M295.83 0C294.97 0 294.17 0.76 293.52 2C294.17 0.72 294.97 0 295.83 0Z" fill="#242424"/>
<path d="M293.52 2C293.2 2.64158 292.939 3.31102 292.74 4C292.939 3.31102 293.2 2.64158 293.52 2Z" fill="#242424"/>
<path d="M292.74 4.07001C292.432 5.12728 292.208 6.20733 292.07 7.30001C292.208 6.20733 292.432 5.12728 292.74 4.07001Z" fill="#242424"/>
<path d="M292.07 7.29999C291.911 8.56374 291.831 9.83622 291.83 11.11C291.831 9.83622 291.911 8.56374 292.07 7.29999Z" fill="#242424"/>
<path d="M246.83 11.11H195.83V13.89H246.83V11.11Z" fill="#242424"/>
<path d="M242.83 0H199.83C199.497 0.00442462 199.173 0.108955 198.9 0.3H243.76C243.487 0.108955 243.163 0.00442462 242.83 0" fill="#242424"/>
<path d="M243.76 0.299988H198.9C198.833 0.340932 198.769 0.387783 198.71 0.439988H244L243.76 0.299988Z" fill="#242424"/>
<path d="M244 0.440002H198.71L198.54 0.590002H244.12L244 0.440002Z" fill="#242424"/>
<path d="M244.12 0.590027H198.54L198.39 0.740027H244.27L244.12 0.590027Z" fill="#242424"/>
<path d="M244.27 0.73999H198.39L198.24 0.90999H244.42L244.27 0.73999Z" fill="#242424"/>
<path d="M244.42 0.909973H198.24L198.08 1.10997H244.58L244.42 0.909973Z" fill="#242424"/>
<path d="M244.58 1.10999H198.08L197.93 1.33999H244.73L244.58 1.10999Z" fill="#242424"/>
<path d="M244.73 1.34003H197.93L197.76 1.59003H244.9L244.73 1.34003Z" fill="#242424"/>
<path d="M244.9 1.59003H197.76L197.59 1.90003H245.07L244.9 1.59003Z" fill="#242424"/>
<path d="M245.07 1.90002H197.59L197.41 2.26002H245.25L245.07 1.90002Z" fill="#242424"/>
<path d="M245.25 2.26001H197.41C197.35 2.39001 197.28 2.53001 197.22 2.68001H245.43C245.37 2.52668 245.31 2.38668 245.25 2.26001Z" fill="#242424"/>
<path d="M245.43 2.67999H197.22C197.16 2.82999 197.09 2.99999 197.03 3.16999H245.63C245.57 2.99999 245.5 2.82999 245.43 2.67999Z" fill="#242424"/>
<path d="M245.63 3.16998H197C196.94 3.33998 196.87 3.52998 196.81 3.71998H245.81C245.75 3.52998 245.68 3.33998 245.62 3.16998" fill="#242424"/>
<path d="M245.82 3.71997H196.82L196.64 4.30997H246C245.95 4.10997 245.89 3.90997 245.83 3.71997" fill="#242424"/>
<path d="M246 4.31H196.66C196.66 4.51 196.55 4.72 196.5 4.93H246.16C246.1 4.72 246.05 4.51 245.99 4.31" fill="#242424"/>
<path d="M246.16 4.92999H196.5C196.45 5.13999 196.41 5.34999 196.36 5.56999H246.3C246.25 5.34999 246.21 5.13999 246.16 4.92999Z" fill="#242424"/>
<path d="M246.3 5.57001H196.36L196.24 6.21001H246.42L246.3 5.57001Z" fill="#242424"/>
<path d="M246.42 6.21002H196.24C196.24 6.41002 196.17 6.62002 196.13 6.84002H246.52C246.52 6.62002 246.46 6.41002 246.42 6.21002Z" fill="#242424"/>
<path d="M246.52 6.84003H196.13C196.13 7.04003 196.13 7.25003 196.05 7.46003H246.61L246.52 6.84003Z" fill="#242424"/>
<path d="M246.61 7.46002H196.05C196.05 7.66002 196 7.86002 195.98 8.07002H246.68C246.68 7.86002 246.63 7.66002 246.61 7.46002Z" fill="#242424"/>
<path d="M246.68 8.07001H196L195.94 8.67001H246.75C246.75 8.47001 246.75 8.27001 246.75 8.07001" fill="#242424"/>
<path d="M246.73 8.66998H195.92C195.92 8.86998 195.92 9.06998 195.92 9.26998H246.82C246.82 9.06998 246.82 8.86998 246.77 8.66998" fill="#242424"/>
<path d="M246.78 9.27002H195.88V9.86002H246.88V9.27002" fill="#242424"/>
<path d="M246.81 9.85999H195.81C195.81 10.06 195.81 10.26 195.81 10.46H246.81C246.81 10.26 246.81 10.06 246.81 9.85999Z" fill="#242424"/>
<path d="M246.82 10.46H195.82V11.06H246.82C246.82 10.86 246.82 10.66 246.82 10.46Z" fill="#242424"/>
<path d="M246.83 13.89H195.83V14.43H246.83V13.89Z" fill="#1F1F1F"/>
<path d="M246.83 14.43H195.83C195.83 14.64 195.83 14.84 195.83 15.03H246.83C246.83 14.84 246.83 14.64 246.83 14.43Z" fill="#2B2B2B"/>
<path d="M246.81 15H195.81V15.61H246.71V15" fill="#353535"/>
<path d="M246.78 15.64H195.88C195.88 15.86 195.88 16.07 195.88 16.28H246.7C246.7 16.07 246.7 15.86 246.7 15.64" fill="#3D3D3D"/>
<path d="M246.74 16.28H195.92L196 17H246.69C246.69 16.77 246.74 16.55 246.76 16.31" fill="#444444"/>
<path d="M246.67 17H196C196 17.27 196.06 17.53 196.1 17.79H246.6C246.6 17.53 246.67 17.27 246.69 17" fill="#4B4B4B"/>
<path d="M246.58 17.76H196.08C196.08 18.12 196.18 18.48 196.24 18.83H246.42C246.48 18.48 246.53 18.12 246.58 17.76Z" fill="#515151"/>
<path d="M246.42 18.83H196.24C196.35 19.42 196.47 19.98 196.61 20.51H246C246.14 19.98 246.27 19.42 246.38 18.83" fill="#575757"/>
<path d="M246 20.51H196.61L196.82 21.22H245.82C245.89 20.99 245.96 20.75 246.02 20.51" fill="#515151"/>
<path d="M245.84 21.22H196.84L196.99 21.66H245.71L245.86 21.22" fill="#4B4B4B"/>
<path d="M245.69 21.66H197L197.12 21.98H245.6L245.72 21.66" fill="#444444"/>
<path d="M245.57 22H197.09L197.21 22.3H245.45L245.57 22Z" fill="#3D3D3D"/>
<path d="M245.45 22.28H197.21C197.239 22.3617 197.272 22.4419 197.31 22.52H245.31L245.41 22.28" fill="#353535"/>
<path d="M245.35 22.52H197.35C197.35 22.6 197.42 22.68 197.46 22.75H245.28C245.28 22.68 245.35 22.6 245.39 22.52" fill="#2B2B2B"/>
<path d="M245.24 22.75H197.42C197.42 22.83 197.49 22.9 197.52 22.97H245.14C245.14 22.9 245.21 22.83 245.24 22.75Z" fill="#1F1F1F"/>
<path d="M245.14 23H197.52C197.52 23.07 197.59 23.14 197.63 23.2H245C245 23.14 245.07 23.07 245.11 23" fill="#242424"/>
<path d="M245 23.17H197.6L197.71 23.37H244.89L245 23.17Z" fill="#242424"/>
<path d="M244.92 23.37H197.74L197.86 23.57H244.79C244.839 23.5072 244.883 23.4403 244.92 23.37Z" fill="#242424"/>
<path d="M244.79 23.57H197.86L197.99 23.76H244.67L244.79 23.57Z" fill="#242424"/>
<path d="M244.67 23.76H198L198.15 23.96H244.53L244.68 23.76" fill="#242424"/>
<path d="M244.52 24H198.14L198.29 24.19H244.37L244.52 24Z" fill="#242424"/>
<path d="M244.37 24.15H198.29L198.43 24.3H244.23L244.37 24.15Z" fill="#242424"/>
<path d="M244.23 24.3H198.43L198.57 24.44H244.08L244.23 24.3Z" fill="#242424"/>
<path d="M244.08 24.44H198.57L198.69 24.54H244C244.041 24.5121 244.078 24.4784 244.11 24.44" fill="#242424"/>
<path d="M244 24.54H198.69L198.8 24.63H243.86L243.97 24.54" fill="#242424"/>
<path d="M243.86 24.63H198.8L198.9 24.7H243.76L243.86 24.63Z" fill="#242424"/>
<path d="M243.76 24.7H198.9L198.99 24.75H243.67L243.76 24.7Z" fill="#242424"/>
<path d="M243.67 24.75H199L199.08 24.8H243.6L243.68 24.75" fill="#242424"/>
<path d="M243.59 24.8H199.07L199.16 24.85H243.5L243.59 24.8Z" fill="#242424"/>
<path d="M242.83 0C245.04 0 246.83 5 246.83 11.11C246.83 5 245 0 242.83 0Z" fill="#242424"/>
<path d="M246.83 13.89C246.83 19.58 245.29 24.27 243.3 24.89C245.3 24.24 246.83 19.55 246.83 13.89Z" fill="#242424"/>
<path d="M243.3 24.92C243.203 24.9575 243.103 24.9843 243 25C243.095 24.9862 243.189 24.9628 243.28 24.93" fill="#242424"/>
<path d="M195.83 14.53C195.86 16.016 196.007 17.4972 196.27 18.96C196.007 17.4972 195.86 16.016 195.83 14.53Z" fill="#242424"/>
<path d="M196.27 19C196.466 20.1171 196.771 21.2123 197.18 22.27C196.771 21.2123 196.466 20.1171 196.27 19Z" fill="#242424"/>
<path d="M197.18 22.23C197.513 23.2132 198.124 24.0783 198.94 24.72C198.124 24.0783 197.513 23.2132 197.18 22.23Z" fill="#242424"/>
<path d="M198.94 24.72C199.047 24.7976 199.165 24.8583 199.29 24.9C199.165 24.8583 199.047 24.7976 198.94 24.72Z" fill="#242424"/>
<path d="M199.29 24.9C199.374 24.9327 199.461 24.9561 199.55 24.97C199.461 24.9561 199.374 24.9327 199.29 24.9Z" fill="#242424"/>
<path d="M199.55 25C199.626 25.0104 199.704 25.0104 199.78 25C199.704 25.0104 199.626 25.0104 199.55 25Z" fill="#242424"/>
<path d="M199.83 0C198.97 0 198.17 0.76 197.52 2C198.17 0.72 198.97 0 199.83 0Z" fill="#242424"/>
<path d="M197.52 2C197.196 2.64119 196.932 3.31064 196.73 4C196.932 3.31064 197.196 2.64119 197.52 2Z" fill="#242424"/>
<path d="M196.73 4.07001C196.43 5.12877 196.209 6.20843 196.07 7.30001C196.209 6.20843 196.43 5.12877 196.73 4.07001Z" fill="#242424"/>
<path d="M196.07 7.29999C195.906 8.56327 195.825 9.83607 195.83 11.11C195.825 9.83607 195.906 8.56327 196.07 7.29999Z" fill="#242424"/>
<path d="M246.83 13.89C246.83 19.58 245.29 24.27 243.3 24.89C245.3 24.24 246.83 19.55 246.83 13.89Z" fill="#242424"/>
<path d="M243.3 24.92C243.203 24.9575 243.103 24.9843 243 25C243.095 24.9862 243.189 24.9628 243.28 24.93" fill="#242424"/>
<path d="M195.83 13.94H246.83C246.83 14.14 246.83 14.34 246.83 14.54H195.83V13.94Z" fill="#242424"/>
<path d="M195.83 14.54H246.83C246.83 14.74 246.83 14.94 246.83 15.14H195.83C195.83 14.94 195.83 14.74 195.83 14.54Z" fill="#242424"/>
<path d="M195.85 15.14H246.85V15.73H195.95V15.14" fill="#242424"/>
<path d="M195.88 15.73H246.78C246.78 15.93 246.78 16.13 246.73 16.33H195.92C195.92 16.13 195.92 15.93 195.92 15.73" fill="#242424"/>
<path d="M195.92 16.33H246.73C246.73 16.53 246.73 16.73 246.73 16.93H196L195.94 16.33" fill="#242424"/>
<path d="M196 16.93H246.7C246.7 17.14 246.65 17.34 246.63 17.54H196.05C196.05 17.34 196 17.14 195.98 16.93" fill="#242424"/>
<path d="M196.05 17.54H246.61L246.52 18.16H196.13C196.13 17.96 196.13 17.75 196.05 17.54Z" fill="#242424"/>
<path d="M196.13 18.16H246.52C246.52 18.38 246.46 18.59 246.42 18.79H196.24C196.24 18.59 196.17 18.38 196.13 18.16Z" fill="#242424"/>
<path d="M196.24 18.79H246.42L246.3 19.43H196.36L196.24 18.79Z" fill="#242424"/>
<path d="M196.36 19.43H246.3C246.25 19.65 246.21 19.86 246.16 20.07H196.5C196.45 19.86 196.41 19.65 196.36 19.43Z" fill="#242424"/>
<path d="M196.5 20.07H246.16C246.1 20.28 246.05 20.49 245.99 20.69H196.66C196.66 20.49 196.55 20.28 196.5 20.07Z" fill="#242424"/>
<path d="M196.66 20.69H246C245.95 20.89 245.89 21.09 245.83 21.28H196.83L196.65 20.69" fill="#242424"/>
<path d="M196.84 21.28H245.84C245.78 21.47 245.71 21.66 245.65 21.83H197C196.94 21.66 196.87 21.47 196.81 21.28" fill="#242424"/>
<path d="M197 21.83H245.6C245.54 22 245.47 22.17 245.4 22.32H197.22C197.16 22.17 197.09 22 197.03 21.83" fill="#242424"/>
<path d="M197.22 22.32H245.43C245.37 22.4667 245.31 22.6067 245.25 22.74H197.41C197.35 22.61 197.28 22.47 197.22 22.32Z" fill="#242424"/>
<path d="M197.41 22.74H245.25L245.07 23.1H197.59L197.41 22.74Z" fill="#242424"/>
<path d="M197.59 23.1H245.07C245.01 23.2 244.96 23.31 244.9 23.4H197.76C197.7 23.31 197.65 23.2 197.59 23.1Z" fill="#242424"/>
<path d="M197.76 23.4H244.9C244.84 23.49 244.79 23.58 244.73 23.66H197.92L197.76 23.4Z" fill="#242424"/>
<path d="M197.92 23.66H244.73L244.58 23.89H198.08L197.92 23.66Z" fill="#242424"/>
<path d="M198.08 23.89H244.58L244.42 24.09H198.24L198.08 23.89Z" fill="#242424"/>
<path d="M198.24 24.09H244.42L244.27 24.26H198.39L198.24 24.09Z" fill="#242424"/>
<path d="M198.39 24.26H244.27L244.12 24.41H198.54L198.39 24.26Z" fill="#242424"/>
<path d="M198.54 24.41H244.12L243.95 24.56H198.71L198.54 24.41Z" fill="#242424"/>
<path d="M198.71 24.56H244L243.81 24.7H198.9C198.833 24.6591 198.769 24.6122 198.71 24.56Z" fill="#242424"/>
<path d="M198.9 24.7H243.76C243.487 24.8911 243.163 24.9956 242.83 25H199.83C199.497 24.9956 199.173 24.8911 198.9 24.7Z" fill="#242424"/>
<path d="M195.83 14.53C195.86 16.016 196.007 17.4972 196.27 18.96C196.007 17.4972 195.86 16.016 195.83 14.53Z" fill="#242424"/>
<path d="M196.27 19C196.466 20.1171 196.771 21.2123 197.18 22.27C196.771 21.2123 196.466 20.1171 196.27 19Z" fill="#242424"/>
<path d="M197.18 22.23C197.513 23.2132 198.124 24.0783 198.94 24.72C198.124 24.0783 197.513 23.2132 197.18 22.23Z" fill="#242424"/>
<path d="M198.94 24.72C199.047 24.7976 199.165 24.8583 199.29 24.9C199.165 24.8583 199.047 24.7976 198.94 24.72Z" fill="#242424"/>
<path d="M199.29 24.9C199.374 24.9327 199.461 24.9561 199.55 24.97C199.461 24.9561 199.374 24.9327 199.29 24.9Z" fill="#242424"/>
<path d="M199.55 25C199.626 25.0104 199.704 25.0104 199.78 25C199.704 25.0104 199.626 25.0104 199.55 25Z" fill="#242424"/>
<path d="M246.83 11.11H195.83V13.89H246.83V11.11Z" fill="#242424"/>
<path d="M242.83 0C245.04 0 246.83 5 246.83 11.11C246.83 5 245 0 242.83 0Z" fill="#242424"/>
<path d="M199.16 0.150024H243.5L243.59 0.200024H199.07L199.16 0.150024Z" fill="#242424"/>
<path d="M198.9 0.299988H243.76L243.86 0.369988H198.8L198.9 0.299988Z" fill="#242424"/>
<path d="M198.8 0.369995H243.86L243.97 0.459995H198.69L198.8 0.369995Z" fill="#242424"/>
<path d="M198.69 0.460022H244C244.041 0.487915 244.078 0.521592 244.11 0.560022H198.57L198.69 0.460022Z" fill="#242424"/>
<path d="M198.57 0.559998H244.08L244.23 0.699998H198.43L198.57 0.559998Z" fill="#242424"/>
<path d="M198.43 0.700012H244.23L244.37 0.850012H198.29L198.43 0.700012Z" fill="#242424"/>
<path d="M198.29 0.849976H244.37L244.52 1.03998H198.14L198.29 0.849976Z" fill="#242424"/>
<path d="M198.14 1H244.52L244.67 1.2H198L198.15 1" fill="#242424"/>
<path d="M198 1.23999H244.68L244.8 1.42999H197.86L197.99 1.23999" fill="#242424"/>
<path d="M197.86 1.42999H244.79C244.839 1.49275 244.883 1.55967 244.92 1.62999H197.74L197.86 1.42999Z" fill="#242424"/>
<path d="M197.74 1.63H244.92L245.03 1.83H197.63L197.74 1.63Z" fill="#242424"/>
<path d="M197.63 1.83002H245C245 1.89002 245.07 1.96002 245.11 2.03002H197.52C197.52 1.96002 197.59 1.89002 197.63 1.83002Z" fill="#242424"/>
<path d="M197.52 2H245.14C245.14 2.07 245.21 2.14 245.24 2.22H197.42C197.42 2.14 197.49 2.07 197.52 2Z" fill="#1F1F1F"/>
<path d="M197.42 2.25H245.24C245.24 2.32 245.31 2.4 245.35 2.48H197.35C197.35 2.4 197.42 2.32 197.46 2.25" fill="#2B2B2B"/>
<path d="M197.31 2.47998H245.31L245.41 2.71998H197.21C197.239 2.63826 197.272 2.55815 197.31 2.47998Z" fill="#353535"/>
<path d="M197.21 2.71997H245.45L245.57 3.01997H197.09L197.21 2.71997Z" fill="#3D3D3D"/>
<path d="M197.09 3H245.57L245.69 3.32H197L197.12 3" fill="#444444"/>
<path d="M197 3.34003H245.72L245.87 3.78003H196.87L197.02 3.34003" fill="#4B4B4B"/>
<path d="M196.82 3.78003H245.82C245.89 4.01003 245.96 4.25003 246.02 4.49003H196.61L196.82 3.78003Z" fill="#515151"/>
<path d="M196.61 4.48999H246C246.14 5.01999 246.27 5.57999 246.38 6.16999H196.24C196.35 5.57999 196.47 5.01999 196.61 4.48999Z" fill="#575757"/>
<path d="M196.24 6.16998H246.42C246.48 6.51998 246.53 6.87998 246.58 7.24998H196.08C196.08 6.87998 196.18 6.51998 196.24 6.16998Z" fill="#515151"/>
<path d="M196.08 7.25H246.58C246.62 7.50333 246.65 7.76333 246.67 8.03H196C196 7.76 196.06 7.5 196.1 7.25" fill="#4B4B4B"/>
<path d="M196 8H246.69C246.69 8.23 246.74 8.45 246.76 8.69H195.92L196 8Z" fill="#444444"/>
<path d="M195.92 8.71997H246.74C246.74 8.92997 246.74 9.13997 246.74 9.35997H195.84C195.84 9.13997 195.84 8.92997 195.84 8.71997" fill="#3D3D3D"/>
<path d="M195.88 9.35999H246.78V9.96999H195.78V9.35999" fill="#353535"/>
<path d="M195.85 10H246.85C246.85 10.19 246.85 10.39 246.85 10.6H195.85C195.85 10.39 195.85 10.19 195.85 10Z" fill="#2B2B2B"/>
<path d="M195.83 10.57H246.83V11.11H195.83V10.57Z" fill="#1F1F1F"/>
<path d="M199.83 0C198.97 0 198.17 0.76 197.52 2C198.17 0.72 198.97 0 199.83 0Z" fill="#242424"/>
<path d="M197.52 2C197.196 2.64119 196.932 3.31064 196.73 4C196.932 3.31064 197.196 2.64119 197.52 2Z" fill="#242424"/>
<path d="M196.73 4.07001C196.43 5.12877 196.209 6.20843 196.07 7.30001C196.209 6.20843 196.43 5.12877 196.73 4.07001Z" fill="#242424"/>
<path d="M196.07 7.29999C195.906 8.56327 195.825 9.83607 195.83 11.11C195.825 9.83607 195.906 8.56327 196.07 7.29999Z" fill="#242424"/>
<path d="M376.7 434H158.7V495H376.7V434Z" fill="white"/>
<path d="M183.984 472.951H193.441V485.853C191.895 486.357 190.406 486.714 188.977 486.925C187.559 487.136 186.023 487.242 184.371 487.242C180.48 487.242 177.48 486.093 175.371 483.796C173.262 481.488 172.207 478.236 172.207 474.04C172.207 469.904 173.396 466.669 175.775 464.337C178.154 461.994 181.43 460.822 185.602 460.822C188.285 460.822 190.828 461.337 193.23 462.369L191.754 465.867C189.668 464.906 187.582 464.425 185.496 464.425C182.754 464.425 180.586 465.286 178.992 467.009C177.398 468.732 176.602 471.087 176.602 474.076C176.602 477.216 177.316 479.607 178.746 481.247C180.188 482.876 182.256 483.691 184.951 483.691C186.311 483.691 187.764 483.521 189.311 483.181V476.554H183.984V472.951ZM224.924 486.89L222.357 479.753H212.531L210.018 486.89H205.588L215.203 461.085H219.773L229.389 486.89H224.924ZM221.25 476.132L218.842 469.136C218.666 468.667 218.42 467.929 218.104 466.921C217.799 465.913 217.588 465.175 217.471 464.706C217.154 466.148 216.691 467.724 216.082 469.435L213.762 476.132H221.25ZM253.242 486.89L245.789 465.427H245.648C245.848 468.615 245.947 471.603 245.947 474.392V486.89H242.133V461.191H248.057L255.193 481.634H255.299L262.646 461.191H268.588V486.89H264.545V474.181C264.545 472.904 264.574 471.24 264.633 469.189C264.703 467.138 264.762 465.896 264.809 465.462H264.668L256.951 486.89H253.242ZM284.707 486.89V461.191H288.908V486.89H284.707ZM326.473 486.89H321.322L308.684 466.411H308.543L308.631 467.554C308.795 469.734 308.877 471.726 308.877 473.531V486.89H305.062V461.191H310.16L322.764 481.564H322.869C322.846 481.294 322.799 480.316 322.729 478.628C322.658 476.929 322.623 475.605 322.623 474.656V461.191H326.473V486.89ZM353.121 472.951H362.578V485.853C361.031 486.357 359.543 486.714 358.113 486.925C356.695 487.136 355.16 487.242 353.508 487.242C349.617 487.242 346.617 486.093 344.508 483.796C342.398 481.488 341.344 478.236 341.344 474.04C341.344 469.904 342.533 466.669 344.912 464.337C347.291 461.994 350.566 460.822 354.738 460.822C357.422 460.822 359.965 461.337 362.367 462.369L360.891 465.867C358.805 464.906 356.719 464.425 354.633 464.425C351.891 464.425 349.723 465.286 348.129 467.009C346.535 468.732 345.738 471.087 345.738 474.076C345.738 477.216 346.453 479.607 347.883 481.247C349.324 482.876 351.393 483.691 354.088 483.691C355.447 483.691 356.9 483.521 358.447 483.181V476.554H353.121V472.951Z" fill="#242424"/>
<path d="M467.49 487.34C339.145 436.518 196.255 436.518 67.91 487.34L58.65 491L0 342.88L9.26 339.21C175.284 273.478 360.116 273.478 526.14 339.21L535.4 342.88L476.75 491L467.49 487.34Z" fill="white"/>
<path d="M60.7599 331.53C71.2199 332.76 76.3899 333.53 86.6399 335.11C86.7499 335.53 86.8099 335.73 86.9199 336.11L87.3499 337.66C89.4499 345.26 90.4899 349.06 92.5899 356.66L93.2999 359.26L96.9999 372.77C100.52 385.55 104.043 398.333 107.57 411.12C109.07 416.58 109.82 419.3 111.33 424.76C111.61 425.76 111.76 426.32 112.04 427.35C114.12 434.89 115.16 438.65 117.23 446.18L117.71 447.91C117.81 448.26 117.85 448.43 117.95 448.77C111.57 454.99 108.46 458.15 102.42 464.55L102.24 464.61C94.9199 466.9 91.2399 468.12 84.0099 470.68C80.4499 471.93 78.6799 472.57 75.1299 473.89C70.7599 475.52 68.5699 476.36 64.2199 478.08C61.2199 470.48 59.7099 466.68 56.6999 459.08C44.6132 428.533 32.5199 397.99 20.4199 367.45C17.4199 359.85 15.9099 356.05 12.8999 348.45C18.3499 346.29 21.0899 345.24 26.5699 343.2C31.0099 341.55 33.2299 340.75 37.6899 339.2C46.7799 335.99 51.3499 334.47 60.5199 331.6L60.7599 331.53ZM85.6299 417.62C81.6299 404.953 77.6299 392.313 73.6299 379.7L65.8299 355.11C62.4199 354.69 60.7099 354.49 57.2799 354.11C52.1599 355.8 49.6099 356.67 44.5199 358.46C55.4266 389.453 66.3432 420.453 77.2699 451.46C81.6099 449.93 83.7899 449.19 88.1499 447.75C90.2499 445.55 91.3099 444.45 93.4499 442.27L85.6299 417.62Z" fill="#242424"/>
<path d="M166.2 307.35L169.2 327.55C170.53 336.55 171.2 341.06 172.54 350.06C162.85 351.5 158.01 352.31 148.37 354.11C146.7 345.16 145.86 340.69 144.19 331.74C135.87 333.3 131.73 334.14 123.45 335.96C125.45 345.18 127.477 354.397 129.53 363.61C140.24 366.17 145.53 367.61 155.93 370.61L159.86 392.47C149.79 389.41 144.68 387.98 134.3 385.34L144.62 432.24C151.68 430.69 155.22 429.97 162.31 428.64C162.25 428.29 162.21 428.11 162.15 427.76C161.86 426.21 161.71 425.44 161.42 423.89L161.32 423.36C161.18 422.58 161.11 422.2 160.96 421.42C160.81 420.64 160.72 420.15 160.57 419.31L157.57 403.31C157.44 402.6 157.37 402.25 157.24 401.55C167.02 404.46 171.84 406.02 181.31 409.32C181.96 413.72 182.31 415.91 182.94 420.32C183.23 422.23 183.37 423.19 183.65 425.11L184.6 431.49L186.65 445.31C178.4 446.53 174.28 447.22 166.07 448.76C159.23 450.04 155.81 450.76 149 452.23C140.83 454.03 136.76 455 128.64 457.11C126.64 449.21 125.56 445.25 123.5 437.34C118.76 419.08 114.013 400.817 109.26 382.55C111.69 381.91 112.91 381.55 115.35 380.99C112.61 380.42 111.24 380.14 108.49 379.6C105.74 379.06 104.49 378.76 101.79 378.22C101.59 377.46 101.49 377.08 101.28 376.32L96.4601 358.5C96.2801 357.81 96.1801 357.5 96.0001 356.77C98.7501 357.22 100.12 357.45 102.86 357.92L98.7101 341.92C96.6501 334 95.6301 330 93.5701 322.13C103.73 319.48 108.83 318.26 119.06 316.01C127.59 314.14 131.87 313.27 140.43 311.66C150.72 309.74 155.87 308.88 166.2 307.35Z" fill="#242424"/>
<path d="M248.3 320.57C239 320.84 234.3 321.05 225.04 321.65L232.6 440.38C224.29 440.91 220.14 441.25 211.86 442.09L199.86 323.73C190.68 324.66 186.09 325.21 176.93 326.46C175.83 318.36 175.27 314.31 174.17 306.22C183.61 304.93 188.33 304.37 197.8 303.41C208.18 302.35 213.38 301.92 223.8 301.26C233.38 300.65 238.17 300.43 247.8 300.15C248 308.32 248.07 312.4 248.3 320.57Z" fill="#242424"/>
<path d="M327.62 323L318.83 421.15C318.1 429.29 317.73 433.36 317 441.5C308.71 440.76 304.56 440.5 296.24 440.03C289.32 439.68 285.85 439.55 278.92 439.41C270.6 439.24 266.44 439.24 258.12 439.41L257.77 418.99L256.06 320.45L255.71 300C266.12 299.82 271.34 299.83 281.71 300C290.39 300.17 294.71 300.33 303.4 300.78C313.81 301.32 319.01 301.68 329.4 302.61C328.71 310.76 328.34 314.83 327.62 323ZM297.3 419.6C299 386.8 300.697 353.997 302.39 321.19C293.97 320.75 289.76 320.6 281.34 320.43C280.673 353.27 280.007 386.113 279.34 418.96C286.52 419.1 290.12 419.23 297.3 419.6Z" fill="#242424"/>
<path d="M410.5 314.75C408.2 325.677 405.897 336.607 403.59 347.54L403.22 349.29C401.7 356.52 400.93 360.13 399.41 367.35C399.25 368.12 399.17 368.51 399 369.28C395.78 384.613 392.553 399.927 389.32 415.22C386.793 427.22 384.267 439.2 381.74 451.16C373.56 449.43 369.45 448.65 361.22 447.24C363.3 435.167 365.373 423.097 367.44 411.03C370.553 392.903 373.667 374.773 376.78 356.64C379.72 357.15 381.2 357.41 384.14 357.95C375.81 351.81 367.26 345.88 358.6 340.22L344.05 444.56C335.79 443.41 331.65 442.92 323.37 442.08C327.29 403.273 331.217 364.47 335.15 325.67L335.35 323.67C335.43 322.81 335.48 322.38 335.56 321.53L337.21 305.3L337.41 303.3C352.3 312.14 366.83 321.38 381.14 331.13C382.61 322.58 383.35 318.31 384.81 309.76C395.12 311.61 400.26 312.59 410.5 314.75Z" fill="#242424"/>
<path d="M464.93 328.56C475.02 331.56 480.04 333.16 490.04 336.56L483.47 355.9C478.137 371.633 472.803 387.357 467.47 403.07L466.84 404.94L460.91 422.42L460.33 424.11C455.31 438.93 450.283 453.75 445.25 468.57C437.25 465.86 433.25 464.57 425.2 462.19C430.433 444.623 435.66 427.047 440.88 409.46C443.6 410.27 444.96 410.69 447.67 411.53L447.33 411.23C445.18 409.14 444.09 408.1 441.9 406.03C435.6 400.03 432.37 397.09 425.78 391.28L408.36 457.47C400.25 455.34 396.18 454.35 388.01 452.53C393.843 426.41 399.67 400.293 405.49 374.18C405.66 373.41 405.74 373.03 405.92 372.26C407.52 365.05 408.33 361.45 409.92 354.26C410.08 353.56 410.16 353.21 410.31 352.51C411.75 346.08 412.47 342.86 413.9 336.43L418.35 316.49C428.58 318.77 433.67 320.01 443.83 322.68C452.3 324.88 456.52 326.06 464.93 328.56ZM448.28 384.56L459.11 348.15C450.95 345.72 446.85 344.58 438.64 342.41C436.253 351.483 433.867 360.553 431.48 369.62C438.35 375.49 441.71 378.48 448.28 384.55V384.56Z" fill="#242424"/>
<path d="M497.69 339.2C507.69 342.71 512.62 344.56 522.48 348.47L482.31 449.92C474 446.64 469.83 445.07 461.43 442.12C473.517 407.813 485.603 373.507 497.69 339.2ZM455.18 459.86L459.35 448C467.65 450.93 471.78 452.47 480 455.72C476.46 464.65 474.7 469.12 471.16 478.05C465 470.7 461.78 467.05 455.18 459.86Z" fill="#242424"/>
</svg>
